<svg width="287" height="54" viewBox="0 0 287 54" fill="none" xmlns="http://www.w3.org/2000/svg">
<path d="M1 33.8749C2.51462 33.6922 42.3997 29.4846 51.9918 34.4237C61.5838 39.3628 58.5554 44.8507 70.6723 48.5095C82.7892 52.1683 91.1196 42.1068 94.9061 24.7288C98.6927 7.35073 119.645 8.08226 126.461 27.8387C133.277 47.5952 143.374 45.5823 148.927 42.4723C154.48 39.3623 164.578 41.7407 169.88 50.1553C175.181 58.57 189.064 50.3381 192.094 29.3013C195.123 8.26446 214.056 4.42292 221.124 22.167C228.192 39.9116 276.66 32.9601 276.66 32.9601" stroke="url(#paint0_linear_1442_839)" stroke-width="0.25" stroke-miterlimit="10"/>
<path d="M1.18164 33.646C2.56297 33.4791 37.852 29.4987 50.4036 33.332C51.2124 33.579 51.925 33.8528 52.5233 34.1624C62.3887 39.2711 59.4284 44.669 71.4855 48.2701C83.5532 51.873 92.0124 41.9272 95.9859 24.789C99.9292 7.78033 120.415 8.44547 127.215 27.68C133.967 46.9075 143.924 45.0257 149.407 42.0622C152.166 40.5712 156.023 40.4147 159.85 41.6929C163.632 42.9633 167.377 45.6091 169.976 49.6948C175.267 57.9629 188.923 49.9884 192.065 29.4938C195.159 9.00963 213.19 5.3256 220.808 22.3348C224.343 30.2264 237.084 33.1542 249.422 34.0702C263.159 35.0646 276.92 33.123 276.92 33.123" stroke="url(#paint1_linear_1442_839)" stroke-width="0.25" stroke-miterlimit="10"/>
<path d="M1.36328 33.4174C2.70523 33.2555 38.0882 29.0063 50.9238 33.0552C51.7326 33.3104 52.4497 33.5881 53.0541 33.9015C63.1929 39.1797 60.3015 44.4882 72.298 48.0312C84.3165 51.578 92.9028 41.7492 97.065 24.8497C101.163 8.21146 121.185 8.80909 127.968 27.5218C134.658 46.2196 144.472 44.4695 149.886 41.6509C152.606 40.2356 156.374 40.0907 160.115 41.3639C163.832 42.6289 167.492 45.2417 170.072 49.233C175.327 57.3634 188.783 49.637 192.036 29.6851C195.195 9.75301 212.309 6.25118 220.493 22.502C224.23 29.9205 237.123 32.9087 249.457 34.0222C263.145 35.2581 277.179 33.2846 277.179 33.2846" stroke="url(#paint2_linear_1442_839)" stroke-width="0.25" stroke-miterlimit="10"/>
<path d="M1.54688 33.1891C2.84944 33.0316 38.3263 28.5123 51.4466 32.7781C52.2562 33.0415 52.9771 33.3236 53.5868 33.6408C63.9982 39.0886 61.1765 44.3071 73.1124 47.793C85.0824 51.2839 93.7937 41.573 98.146 24.9117C102.394 8.64443 122.019 9.16193 128.724 27.3653C135.412 45.5221 145.02 43.9158 150.367 41.2421C153.046 39.9025 156.724 39.7719 160.38 41.0374C164.029 42.3001 167.615 44.8745 170.169 48.7737C175.4 56.7619 188.709 49.2939 192.007 29.8788C195.299 10.5054 211.417 7.2066 220.178 22.671C224.125 29.6379 237.162 32.6524 249.493 33.9761C263.131 35.4397 277.439 33.4487 277.439 33.4487" stroke="url(#paint3_linear_1442_839)" stroke-width="0.25" stroke-miterlimit="10"/>
<path d="M1.73047 32.9603C2.99366 32.8077 38.5644 28.0157 51.9695 32.5009C52.7798 32.772 53.5053 33.0585 54.1203 33.3801C64.8043 38.9975 62.0515 44.1265 73.9269 47.5543C85.8477 50.9892 94.6832 41.3969 99.2263 24.9726C103.624 9.07689 122.81 9.52141 129.478 27.2073C136.123 44.8306 145.567 43.361 150.847 40.8316C153.486 39.5677 157.073 39.4519 160.645 40.7092C164.227 41.9703 167.738 44.5058 170.265 48.3127C175.474 56.1588 188.59 48.9455 191.978 30.0709C195.356 11.2523 210.522 8.18949 219.862 22.8384C224.032 29.3778 237.2 32.3945 249.528 33.9284C263.117 35.6192 277.699 33.6112 277.699 33.6112" stroke="url(#paint4_linear_1442_839)" stroke-width="0.25" stroke-miterlimit="10"/>
<path d="M1.91211 32.7313C3.13592 32.5837 38.8021 27.5167 52.4904 32.2237C53.3015 32.5025 54.0308 32.7934 54.6518 33.1188C65.6093 38.9058 62.9254 43.9448 74.7401 47.3149C86.6117 50.6938 95.5691 41.2217 100.306 25.0329C104.849 9.50923 123.6 9.88022 130.233 27.0486C136.834 44.1385 146.11 42.806 151.327 40.4205C153.924 39.2329 157.423 39.1313 160.91 40.3809C164.424 41.6399 167.861 44.1363 170.362 47.8511C175.549 55.555 188.472 48.5974 191.949 30.2623C195.414 11.9991 209.635 9.20356 219.547 23.0051C223.955 29.1433 237.239 32.1348 249.564 33.88C263.102 35.7969 277.958 33.7724 277.958 33.7724" stroke="url(#paint5_linear_1442_839)" stroke-width="0.25" stroke-miterlimit="10"/>
<path d="M2.09375 32.503C3.27818 32.3598 39.0398 27.0168 53.0106 31.9466C53.8224 32.233 54.5555 32.5283 55.1818 32.8581C66.4119 38.8147 63.7977 43.7642 75.5518 47.0767C87.3742 50.4002 96.4512 41.0483 101.384 25.0944C106.07 9.9428 124.389 10.2402 130.985 26.8917C137.543 43.4476 146.651 42.2529 151.804 40.0111C154.36 38.8992 157.77 38.8125 161.174 40.0539C164.62 41.3111 167.983 43.7686 170.457 47.3912C175.622 54.953 188.35 48.2506 191.919 30.4555C195.47 12.7477 212.141 9.09766 219.23 23.1741C225.252 28.2395 237.274 31.8769 249.598 33.8339C263.085 35.9758 278.216 33.9365 278.216 33.9365" stroke="url(#paint6_linear_1442_839)" stroke-width="0.25" stroke-miterlimit="10"/>
<path d="M2.27734 32.2739C3.42239 32.1357 39.2802 26.5144 53.5334 31.6692C54.346 31.9633 55.0844 32.2624 55.7152 32.5966C67.2354 38.7058 64.6727 43.5823 76.367 46.8372C88.1401 50.1047 97.3346 40.8751 102.466 25.155C107.29 10.3766 125.182 10.5989 131.741 26.7334C138.256 42.7559 147.193 41.6994 152.286 39.6003C154.799 38.5647 158.122 38.4923 161.441 39.7254C164.82 40.9805 168.108 43.3996 170.556 46.93C175.699 54.3502 188.233 47.903 191.892 30.6473C195.529 13.4949 211.825 9.87615 218.917 23.3413C225.386 27.8534 237.315 31.6159 249.635 33.7859C263.072 36.1523 278.477 34.0987 278.477 34.0987" stroke="url(#paint7_linear_1442_839)" stroke-width="0.25" stroke-miterlimit="10"/>
<path d="M2.45703 32.0455C3.56194 31.9121 39.5174 26.0109 54.0524 31.3918C54.8665 31.6931 55.6079 31.9972 56.244 32.3358C68.0391 38.6128 65.5438 43.4016 77.1775 46.5989C88.9014 49.8104 98.211 40.7037 103.543 25.2163C108.503 10.8111 125.969 10.9582 132.493 26.5757C138.962 42.0636 147.728 41.1472 152.763 39.1902C155.232 38.2309 158.468 38.1733 161.703 39.3976C165.015 40.651 168.229 43.0306 170.649 46.4693C175.771 53.7474 188.11 47.5565 191.86 30.8398C195.583 14.2432 211.503 10.6552 218.599 23.509C225.515 27.468 237.35 31.3551 249.668 33.7385C263.054 36.3282 278.734 34.2609 278.734 34.2609" stroke="url(#paint8_linear_1442_839)" stroke-width="0.25" stroke-miterlimit="10"/>
<path d="M2.64062 31.8171C3.70616 31.6881 39.7601 25.5054 54.5753 31.1152C55.3901 31.4236 56.1361 31.7326 56.7775 32.075C68.8467 38.5206 66.4196 43.2204 77.9927 46.3601C89.6681 49.5156 99.089 40.533 104.625 25.2771C109.716 11.2457 126.76 11.3164 133.249 26.4181C139.675 41.3721 148.266 40.595 153.245 38.7802C155.668 37.8966 158.819 37.8543 161.97 39.0699C165.214 40.3223 168.355 42.6623 170.747 46.0088C175.849 53.1448 187.992 47.2101 191.833 31.0323C195.64 14.9917 211.186 11.4344 218.284 23.6769C225.648 27.0832 237.387 31.0938 249.705 33.6912C263.04 36.5038 278.995 34.4239 278.995 34.4239" stroke="url(#paint9_linear_1442_839)" stroke-width="0.25" stroke-miterlimit="10"/>
<path d="M2.82227 31.5885C3.84842 31.4644 40.0008 24.9986 55.0954 30.8377C55.911 31.1533 56.6608 31.4672 57.3083 31.814C69.6516 38.428 67.2919 43.0395 78.8052 46.121C90.4314 49.2206 99.9621 40.3625 105.704 25.3383C110.923 11.6811 127.548 11.675 134.002 26.2602C140.383 40.6797 148.797 40.0431 153.723 38.3699C156.101 37.562 159.168 37.5352 162.234 38.742C165.411 39.9926 168.478 42.2932 170.843 45.5475C175.925 52.5413 187.871 46.8635 191.803 31.2241C195.696 15.7399 210.866 12.2129 217.968 23.8445C225.779 26.6976 237.424 30.8311 249.739 33.6437C263.024 36.6779 279.254 34.5865 279.254 34.5865" stroke="url(#paint10_linear_1442_839)" stroke-width="0.25" stroke-miterlimit="10"/>
<path d="M3.00586 31.3593C3.99263 31.2402 40.2449 24.489 55.6183 30.5602C56.4354 30.8829 57.1882 31.2018 57.841 31.5525C70.4585 38.335 68.1669 42.8576 79.6196 45.882C91.1966 48.9255 100.834 40.1932 106.784 25.3989C112.127 12.1159 128.337 12.0325 134.757 26.1019C141.092 39.9863 149.327 39.4907 154.204 37.9585C156.534 37.2264 159.517 37.2149 162.499 38.4129C165.609 39.6625 168.603 41.9235 170.94 45.0857C176.002 51.9373 187.75 46.5169 191.775 31.4153C195.752 16.4881 210.548 12.9912 217.653 24.011C225.912 26.311 237.462 30.5668 249.775 33.5956C263.009 36.8505 279.514 34.7481 279.514 34.7481" stroke="url(#paint11_linear_1442_839)" stroke-width="0.25" stroke-miterlimit="10"/>
<path d="M3.1875 31.131C4.13489 31.0169 40.4887 23.9792 56.1392 30.2837C56.9571 30.6135 57.7144 30.9373 58.3725 31.2924C71.2641 38.2439 69.0407 42.6776 80.4329 45.6438C91.9606 48.6314 101.701 40.0253 107.864 25.4604C113.327 12.5517 129.125 12.3904 135.511 25.9449C141.801 39.2948 149.854 38.9398 154.683 37.5491C156.964 36.8922 159.866 36.8972 162.764 38.0864C165.806 39.3349 168.728 41.5559 171.036 44.6263C176.079 51.3359 187.63 46.1728 191.746 31.609C195.807 17.2389 210.229 13.7717 217.338 24.18C226.043 25.9274 237.5 30.304 249.812 33.5496C262.995 37.0245 279.774 34.9122 279.774 34.9122" stroke="url(#paint12_linear_1442_839)" stroke-width="0.25" stroke-miterlimit="10"/>
<path d="M3.37109 30.9023C4.27911 30.7925 40.7344 23.4673 56.6621 30.0061C57.4815 30.3425 58.2418 30.6718 58.906 31.0307C72.071 38.1507 69.9157 42.4955 81.248 45.4041C92.7266 48.3363 102.566 39.8569 108.946 25.5208C114.523 12.9864 129.915 12.7477 136.267 25.7864C142.51 38.6007 150.38 38.3872 155.164 37.1382C157.395 36.5559 160.217 36.5779 163.03 37.7578C166.005 39.0052 168.855 41.1861 171.134 44.1649C176.158 50.7323 187.508 45.8278 191.718 31.8006C195.863 17.9881 209.912 14.55 217.023 24.3475C226.176 25.5417 237.538 30.039 249.847 33.5019C262.98 37.1964 280.034 35.0747 280.034 35.0747" stroke="url(#paint13_linear_1442_839)" stroke-width="0.25" stroke-miterlimit="10"/>
<path d="M3.55273 30.6733C4.42137 30.5685 40.9796 22.954 57.1822 29.7288C58.0031 30.0718 58.7665 30.4066 59.436 30.7699C72.8744 38.0595 70.788 42.3148 82.0598 45.1658C93.4898 48.042 103.425 39.6899 110.024 25.5822C115.712 13.4226 130.701 13.1048 137.02 25.6288C143.215 37.908 150.898 37.835 155.643 36.7281C157.822 36.2199 160.565 36.2594 163.294 37.43C166.201 38.6763 168.979 40.8171 171.228 43.7043C176.236 50.129 187.384 45.4835 191.687 31.9931C195.914 18.7387 209.59 15.3291 216.706 24.5153C226.306 25.1563 237.574 29.7738 249.881 33.4546C262.963 37.3674 280.292 35.237 280.292 35.237" stroke="url(#paint14_linear_1442_839)" stroke-width="0.25" stroke-miterlimit="10"/>
<path d="M3.73438 30.4451C4.56363 30.3452 41.2264 22.4393 57.7031 29.4518C58.5256 29.8019 59.2927 30.1416 59.9675 30.5088C73.6793 37.9674 71.6618 42.1332 82.873 44.9266C94.2538 47.7468 104.281 39.5226 111.104 25.6426C116.897 13.8573 131.487 13.4611 137.774 25.4708C143.921 37.2139 151.414 37.2814 156.122 36.3177C158.248 35.8825 160.913 35.9412 163.559 37.1019C166.398 38.3477 169.105 40.4479 171.325 43.2429C176.315 49.5255 187.261 45.139 191.659 32.1848C195.968 19.4885 209.272 16.1074 216.392 24.6822C226.439 24.7706 237.614 29.5067 249.918 33.4064C262.951 37.5371 280.553 35.399 280.553 35.399" stroke="url(#paint15_linear_1442_839)" stroke-width="0.25" stroke-miterlimit="10"/>
<path d="M3.91602 30.2165C4.70513 30.121 41.4739 21.9237 58.224 29.1749C59.0472 29.5316 59.8182 29.8774 60.499 30.2484C74.4842 37.8766 72.5349 41.953 83.6862 44.6887C95.0178 47.453 105.132 39.3572 112.184 25.7044C118.078 14.2928 132.273 13.8181 138.528 25.3136C144.627 36.521 151.927 36.7274 156.602 35.908C158.673 35.5453 161.262 35.6238 163.824 36.7746C166.596 38.0198 169.231 40.0789 171.421 42.7827C176.394 48.9226 187.137 44.7963 191.629 32.3777C196.019 20.2401 208.953 16.8875 216.075 24.8504C226.569 24.3856 237.651 29.2408 249.952 33.3595C262.935 37.707 280.81 35.5623 280.81 35.5623" stroke="url(#paint16_linear_1442_839)" stroke-width="0.25" stroke-miterlimit="10"/>
<path d="M4.09766 29.9876C4.84739 29.8971 41.723 21.4062 58.745 28.8972C59.5697 29.2605 60.3436 29.6117 61.0298 29.9871C75.2876 37.7848 73.408 41.7713 84.4987 44.4494C95.7811 47.1576 105.977 39.1898 113.262 25.7652C119.252 14.7268 133.056 14.1737 139.281 25.1555C145.329 35.8262 152.435 36.1708 157.08 35.4975C159.094 35.2055 161.609 35.3054 164.087 36.4463C166.792 37.6916 169.357 39.7095 171.516 42.3217C176.474 48.3189 187.011 44.4537 191.599 32.5697C196.069 20.9913 208.633 17.6662 215.758 25.0183C226.7 24.0003 237.689 28.9735 249.986 33.3122C262.92 37.8759 281.068 35.7247 281.068 35.7247" stroke="url(#paint17_linear_1442_839)" stroke-width="0.25" stroke-miterlimit="10"/>
<path d="M4.28125 29.759C4.9916 29.6733 41.9747 20.8872 59.2671 28.6202C60.0933 28.9901 60.8703 29.3468 61.5625 29.726C76.0937 37.6934 74.283 41.5903 85.3132 44.2103C96.5463 46.8626 106.82 39.0225 114.343 25.8258C120.423 15.1606 133.841 14.5283 140.036 24.9976C146.033 35.1322 152.941 35.6124 157.561 35.0872C159.518 34.8644 161.959 34.9878 164.353 36.1189C166.99 37.3641 169.485 39.3403 171.614 41.8614C176.557 47.7159 186.886 44.112 191.571 32.7625C196.119 21.7439 208.315 18.4456 215.444 25.1864C226.833 23.6158 237.73 28.7058 250.023 33.2652C262.909 38.0446 281.33 35.8878 281.33 35.8878" stroke="url(#paint18_linear_1442_839)" stroke-width="0.25" stroke-miterlimit="10"/>
<path d="M4.46484 29.5305C5.13582 29.4493 42.228 20.3679 59.7899 28.3435C60.6184 28.7194 61.3985 29.0821 62.0952 29.4657C76.899 37.6032 75.1572 41.4096 86.1276 43.9725C97.3123 46.5688 107.657 38.8561 115.424 25.8876C121.589 15.5939 134.624 14.8844 140.792 24.8405C146.736 34.4378 153.734 35.8998 158.042 34.6776C159.82 34.1733 162.308 34.671 164.619 35.7916C167.188 37.0369 169.614 38.9713 171.712 41.4014C176.641 47.1127 186.759 43.7716 191.543 32.9555C196.169 22.4972 207.997 19.2253 215.13 25.3547C226.966 23.2309 237.771 28.4379 250.059 33.2184C262.897 38.2129 281.59 36.0512 281.59 36.0512" stroke="url(#paint19_linear_1442_839)" stroke-width="0.25" stroke-miterlimit="10"/>
<path d="M4.64648 29.3014C5.27808 29.2251 42.4801 19.8463 60.3109 28.0655C61.1409 28.448 61.9239 28.8163 62.6267 29.2037C77.7032 37.5113 76.0311 41.2277 86.9408 43.7324C98.0763 46.2733 108.487 38.6863 116.504 25.9477C122.749 16.025 135.405 15.2375 141.546 24.6817C147.436 33.7417 154.193 35.3661 158.521 34.2663C160.259 33.8245 162.656 34.353 164.884 35.4627C167.384 36.7084 169.742 38.6001 171.807 40.9391C176.723 46.5071 186.629 43.4295 191.514 33.1462C196.214 23.2488 207.678 20.0027 214.814 25.5208C227.097 22.8438 237.811 28.167 250.094 33.1693C262.885 38.3784 281.849 36.2118 281.849 36.2118" stroke="url(#paint20_linear_1442_839)" stroke-width="0.25" stroke-miterlimit="10"/>
<path d="M4.82812 29.0728C5.42034 29.0014 42.7336 19.3241 60.8318 27.7886C61.6633 28.1777 62.4494 28.552 63.1582 28.9433C78.5066 37.421 76.9049 41.0469 87.7541 43.4939C98.8403 45.9788 109.31 38.5169 117.584 26.0089C123.902 16.4561 136.185 15.5917 142.3 24.5244C148.134 33.0471 154.64 34.8236 159.001 33.856C160.699 33.479 163.005 34.036 165.149 35.1347C167.581 36.381 169.871 38.2305 171.904 40.4783C176.809 45.9026 186.499 43.0895 191.485 33.3385C196.259 24.0025 207.359 20.7816 214.499 25.6889C227.228 22.4593 237.852 27.8978 250.13 33.1223C262.874 38.5455 282.109 36.375 282.109 36.375" stroke="url(#paint21_linear_1442_839)" stroke-width="0.25" stroke-miterlimit="10"/>
<path d="M5.01172 28.8441C5.56455 28.7771 42.9907 18.8007 61.3539 27.5111C62.1869 27.9062 62.9753 28.2876 63.6902 28.6817C79.2877 37.3515 77.7784 40.8654 88.5677 43.2548C99.6047 45.6838 110.128 38.3453 118.664 26.0694C125.05 16.8848 136.962 15.9448 143.055 24.366C148.831 32.3509 155.079 34.2673 159.481 33.4452C161.141 33.1351 163.353 33.7185 165.414 34.8062C167.778 36.053 170 37.8591 172 40.0169C176.895 45.2974 186.366 42.7494 191.456 33.5302C196.3 24.7562 207.04 21.5605 214.182 25.8559C227.36 22.0731 237.894 27.6269 250.164 33.0742C262.862 38.7114 282.368 36.5371 282.368 36.5371" stroke="url(#paint22_linear_1442_839)" stroke-width="0.25" stroke-miterlimit="10"/>
<path d="M5.19336 28.6154C5.70681 28.5534 43.2466 18.2762 61.8748 27.2341C62.7101 27.6358 63.5007 28.0227 64.2217 28.4211C80.0926 37.2605 78.6522 40.6844 89.381 43.0162C100.369 45.3892 110.938 38.172 119.744 26.1305C126.192 17.3125 137.737 16.2978 143.809 24.208C149.524 31.6551 155.511 33.6972 159.961 33.0348C161.585 32.7933 163.701 33.4019 165.68 34.4781C167.974 35.7261 170.131 37.4888 172.097 39.5561C176.982 44.6917 186.23 42.4109 191.427 33.7224C196.34 25.5103 206.722 22.3394 213.868 26.0234C227.492 21.6874 237.937 27.3559 250.201 33.0271C262.853 38.8772 282.628 36.6996 282.628 36.6996" stroke="url(#paint23_linear_1442_839)" stroke-width="0.25" stroke-miterlimit="10"/>
<path d="M5.375 28.3871C5.84832 28.3301 43.5039 17.7516 62.3957 26.957C63.2325 27.3647 64.027 27.7577 64.7532 28.1599C80.8967 37.1689 79.526 40.5033 90.1942 42.777C101.133 45.094 111.74 37.9959 120.823 26.1914C127.328 17.7378 138.508 16.6501 144.562 24.0506C150.214 30.9599 155.937 33.11 160.439 32.6249C162.027 32.4537 164.047 33.0864 165.943 34.1511C168.169 35.4007 170.26 37.119 172.192 39.0962C177.069 44.0869 186.09 42.0734 191.397 33.9151C196.374 26.2655 206.402 23.1187 213.551 26.1914C227.623 21.3028 237.978 27.0854 250.235 32.98C262.842 39.043 282.887 36.8627 282.887 36.8627" stroke="url(#paint24_linear_1442_839)" stroke-width="0.25" stroke-miterlimit="10"/>
<path d="M5.55664 28.1582C5.99058 28.1055 43.762 17.2247 62.9166 26.6798C63.755 27.0936 64.5524 27.4925 65.284 27.8992C81.7001 37.0777 80.3983 40.3222 91.0067 42.5387C101.897 44.7998 112.532 37.8169 121.902 26.2528C128.458 18.1609 139.276 17.0035 145.315 23.893C150.901 30.2645 156.425 31.5926 160.918 32.2149C162.448 32.4267 164.394 32.7708 166.207 33.8234C168.364 35.0746 170.39 36.7479 172.288 38.6352C177.158 43.4799 185.946 41.7353 191.367 34.1071C196.405 27.02 206.083 23.8974 213.235 26.3593C227.753 20.9175 238.021 26.8142 250.269 32.9327C262.832 39.2081 283.145 37.025 283.145 37.025" stroke="url(#paint25_linear_1442_839)" stroke-width="0.25" stroke-miterlimit="10"/>
<path d="M5.74023 27.9295C6.13479 27.8817 44.0237 16.6968 63.4387 26.4027C64.2794 26.8231 65.0791 27.2276 65.8167 27.6381C82.5062 36.9862 81.2733 40.1412 91.8204 42.2996C102.661 44.5052 113.319 37.6326 122.982 26.3133C129.584 18.5808 140.041 17.3554 146.07 23.7345C151.583 29.5687 156.928 30.995 161.398 31.8039C162.869 32.0701 164.741 32.4543 166.473 33.4948C168.56 34.7482 170.523 36.3759 172.384 38.1738C177.25 42.872 185.798 41.3968 191.338 34.2987C196.431 27.7736 205.763 24.6757 212.919 26.5262C227.885 20.5318 238.065 26.5416 250.305 32.8845C262.824 39.3718 283.406 37.187 283.406 37.187" stroke="url(#paint26_linear_1442_839)" stroke-width="0.25" stroke-miterlimit="10"/>
<path d="M5.92188 27.701C6.27705 27.6582 44.2848 16.1687 63.9597 26.1254C64.8025 26.5518 65.6045 26.9623 66.3482 27.3772C83.3104 36.8949 82.1472 39.9599 92.6336 42.0612C103.425 44.2108 114.095 37.4448 124.062 26.3751C130.703 18.9988 140.801 17.7097 146.824 23.5779C152.262 28.8754 157.435 30.3933 161.878 31.3949C163.29 31.7132 165.087 32.1401 166.738 33.168C168.754 34.4242 170.655 36.0053 172.481 37.7142C177.344 42.2648 185.645 41.0596 191.309 34.4923C196.453 28.5285 205.444 25.4564 212.604 26.695C228.017 20.1474 238.11 26.2708 250.341 32.8382C262.817 39.5373 283.664 37.3509 283.664 37.3509" stroke="url(#paint27_linear_1442_839)" stroke-width="0.25" stroke-miterlimit="10"/>
<path d="M6.10352 27.4721C6.41931 27.4337 44.5467 15.639 64.4806 25.8482C65.325 26.2806 66.1307 26.6977 66.879 27.1159C84.1145 36.8032 83.0194 39.7787 93.4461 41.8219C104.188 43.9155 114.862 37.2493 125.141 26.4354C131.817 19.412 141.555 18.0636 147.578 23.4192C152.933 28.1817 157.948 29.783 162.356 30.9838C163.713 31.3531 165.433 31.8245 167.002 32.8392C168.948 34.0982 170.788 35.6326 172.576 37.2526C177.438 41.6545 185.485 40.7193 191.28 34.6837C196.467 29.2803 205.125 26.2345 212.287 26.8624C228.148 19.7616 238.155 25.9986 250.375 32.7904C262.808 39.7013 283.923 37.5128 283.923 37.5128" stroke="url(#paint28_linear_1442_839)" stroke-width="0.25" stroke-miterlimit="10"/>
<path d="M6.28711 27.2432C6.56353 27.2097 44.8121 15.1089 65.0027 25.5705C65.8493 26.009 66.6574 26.4321 67.4117 26.8547C84.9199 36.7115 83.8945 39.597 94.2605 41.5826C104.954 43.6202 115.62 37.0479 126.222 26.4957C132.928 19.8208 142.303 18.4197 148.333 23.2606C153.601 27.4907 158.471 29.1673 162.837 30.5727C164.14 30.992 165.779 31.509 167.267 32.5105C169.142 33.7727 170.922 35.2588 172.674 36.7911C177.536 41.0426 185.319 40.3763 191.251 34.8752C196.477 30.0294 204.807 27.0127 211.973 27.0292C228.28 19.3757 238.201 25.7247 250.411 32.7421C262.803 39.8643 284.183 37.6746 284.183 37.6746" stroke="url(#paint29_linear_1442_839)" stroke-width="0.25" stroke-miterlimit="10"/>
<path d="M6.46875 27.0149C6.70579 26.9864 45.0763 14.5782 65.5236 25.2939C66.3725 25.7384 67.1829 26.1676 67.9424 26.5946C85.724 36.621 84.7675 39.4171 95.073 41.345C105.718 43.3266 116.368 36.8394 127.301 26.5583C134.033 20.228 143.042 18.7814 149.086 23.1048C154.26 26.8053 159.002 28.5499 163.316 30.1639C164.569 30.6326 166.124 31.1962 167.532 32.1845C169.336 33.4501 171.056 34.8879 172.77 36.3323C177.635 40.4318 185.144 40.0322 191.222 35.0695C196.478 30.778 204.488 27.7937 211.657 27.1988C228.412 18.9921 238.249 25.4542 250.447 32.6966C262.798 40.0301 284.443 37.8393 284.443 37.8393" stroke="url(#paint30_linear_1442_839)" stroke-width="0.25" stroke-miterlimit="10"/>
<path d="M6.65234 26.7862C6.85 26.7626 45.3432 14.046 66.0465 25.0163C66.8969 25.4669 67.711 25.9021 68.4759 26.3329C86.5301 36.5288 85.6425 39.2349 95.8882 41.1052C106.484 43.0309 117.107 36.6199 128.382 26.6182C135.136 20.6276 143.776 19.147 149.842 22.9457C154.913 26.1221 159.545 27.9249 163.797 29.7524C165.002 30.2704 166.469 30.8807 167.798 31.8553C169.529 33.1252 171.192 34.5131 172.866 35.8697C177.736 39.8156 184.961 39.6778 191.193 35.26C196.472 31.5173 204.169 28.5708 211.342 27.3646C228.543 18.6048 238.296 25.1793 250.482 32.6472C262.793 40.1915 284.702 37.9996 284.702 37.9996" stroke="url(#paint31_linear_1442_839)" stroke-width="0.25" stroke-miterlimit="10"/>
<path d="M6.83398 26.5575C6.9915 26.5383 45.6104 13.5133 66.5674 24.7394C67.4201 25.196 68.2365 25.6372 69.0074 26.0724C87.3343 36.438 86.5164 39.0546 96.7014 40.8667C107.248 42.7364 117.835 36.3908 129.462 26.6794C136.234 21.023 144.5 19.522 150.596 22.7879C155.559 25.4468 160.097 27.2995 164.277 29.3421C165.437 29.909 166.814 30.5665 168.063 31.5274C169.72 32.8017 171.329 34.1385 172.964 35.409C177.842 39.1989 184.772 39.3169 191.166 35.4523C196.462 32.2512 204.295 30.0901 211.028 27.5327C230.364 20.1877 238.345 24.9068 250.519 32.6003C262.79 40.3552 284.964 38.1628 284.964 38.1628" stroke="url(#paint32_linear_1442_839)" stroke-width="0.25" stroke-miterlimit="10"/>
<path d="M7.01562 26.3295C7.13376 26.3153 45.8784 12.9802 67.0875 24.4631C67.9425 24.9257 68.7612 25.373 69.5374 25.812C88.1376 36.3472 87.3887 38.8738 97.5131 40.6288C108.01 42.4431 118.551 36.1507 130.54 26.7411C137.329 21.4135 145.215 19.9109 151.349 22.6312C156.199 24.7825 160.658 26.6742 164.754 28.933C165.873 29.5498 167.155 30.2539 168.326 31.2006C169.909 32.4798 171.463 33.7646 173.058 34.9494C177.947 38.5807 184.572 38.9441 191.134 35.6458C196.443 32.977 203.917 30.6579 210.709 27.7015C230.122 19.2523 238.391 24.6343 250.551 32.5539C262.783 40.5196 285.22 38.3267 285.22 38.3267" stroke="url(#paint33_linear_1442_839)" stroke-width="0.25" stroke-miterlimit="10"/>
<path d="M7.19922 26.1005C7.27798 26.0912 46.1491 12.4455 67.6104 24.1852C68.4677 24.6539 69.2893 25.1078 70.0709 25.5506C88.9437 36.2559 88.2637 38.6925 98.3283 40.3894C108.776 42.1477 119.262 35.8948 131.622 26.8019C138.425 21.7969 145.93 20.3152 152.105 22.473C156.842 24.1287 161.233 26.0473 165.236 28.5223C166.316 29.1897 167.5 29.9404 168.594 30.8723C170.101 32.1564 171.602 33.3879 173.157 34.4882C178.06 37.9577 184.376 38.5548 191.108 35.8377C196.431 33.6892 203.503 31.2427 210.397 27.8687C229.841 18.351 238.46 24.3477 250.589 32.506C262.799 40.6693 285.482 38.4884 285.482 38.4884" stroke="url(#paint34_linear_1442_839)" stroke-width="0.25" stroke-miterlimit="10"/>
<path d="M7.38086 25.8716C7.42024 25.8666 46.439 11.8917 68.1313 23.908C68.9916 24.3822 69.8148 24.8426 70.6024 25.2893C89.7486 36.1642 89.1375 38.5108 99.1415 40.15C109.54 41.8524 119.962 35.6247 132.702 26.8621C139.519 22.1727 146.647 20.7393 152.859 22.3143C157.488 23.4882 161.813 25.4221 165.716 28.1112C166.759 28.8301 167.841 29.6259 168.858 30.5434C170.288 31.8336 171.739 33.0103 173.252 34.0266C178.173 37.3303 184.18 38.1475 191.078 36.0292C196.419 34.3888 203.052 31.8457 210.08 28.0355C229.528 17.4926 238.5 24.0798 250.624 32.4582C262.787 40.8388 285.741 38.6507 285.741 38.6507" stroke="url(#paint35_linear_1442_839)" stroke-width="0.25" stroke-miterlimit="10"/>
<path d="M7.5625 25.6434C7.5625 25.6434 46.6903 11.3748 68.6522 23.6309C90.6141 35.8871 89.6047 38.2655 99.954 39.9119C110.303 41.5583 120.654 35.3383 133.781 26.9237C146.907 18.5091 159.781 21.253 169.122 30.2164C178.462 39.1798 190.327 39.7286 209.764 28.204C229.202 16.6794 238.542 23.8137 250.659 32.4116C262.776 41.0095 285.999 38.8143 285.999 38.8143" stroke="url(#paint36_linear_1442_839)" stroke-width="0.25" stroke-miterlimit="10"/>
<path d="M1.36328 27.5465C1.36328 27.5465 37.714 18.3997 47.3069 21.327C56.8997 24.2537 62.453 32.6689 74.5699 37.2419C86.6869 41.815 100.571 31.0225 106.629 20.4122C112.687 9.80184 128.339 11.0827 134.902 20.4122C141.464 29.7416 147.271 31.5707 156.106 29.5589C164.942 27.5465 170.747 32.4856 177.059 39.9859C183.369 47.4862 192.205 41.6323 197.001 24.437C201.797 7.24173 215.681 -7.57563 225.021 5.41206C234.361 18.3997 239.158 28.278 246.731 32.1195C254.304 35.9611 276.266 33.7659 276.266 33.7659" stroke="url(#paint37_linear_1442_839)" stroke-width="0.25" stroke-miterlimit="10"/>
<path d="M1.53711 27.455C1.53711 27.455 37.4418 18.4048 47.2247 21.2311C54.2147 23.2507 59.1008 28.1355 65.7924 32.3798C68.3559 33.9949 71.1821 35.5244 74.4863 36.7778C86.0072 41.1533 98.9625 32.0253 105.502 22.2733C105.82 21.7991 106.129 21.3255 106.416 20.8508C112.371 11.0011 126.891 11.8106 133.89 19.8344C134.168 20.1527 134.437 20.482 134.689 20.8245C141.285 29.7956 147.082 31.5105 155.861 29.5371C161.272 28.321 165.558 29.6979 169.503 32.6871C171.979 34.5624 174.339 37.0303 176.778 39.8434C183.105 47.1681 191.922 41.397 196.853 24.4114C201.902 7.30719 215.589 -6.87247 224.944 6.03455C234.163 18.8033 239.211 28.4269 246.919 32.1466C254.619 35.8668 276.272 33.6848 276.272 33.6848" stroke="url(#paint38_linear_1442_839)" stroke-width="0.25" stroke-miterlimit="10"/>
<path d="M1.71484 27.3634C1.71484 27.3634 37.1705 18.4104 47.1465 21.1346C54.1682 23.0521 59.09 27.8283 65.7406 31.9645C68.3019 33.5576 71.1281 35.0635 74.4058 36.3131C85.8934 40.7029 98.6411 32.0583 105.269 22.6586C105.592 22.2009 105.912 21.746 106.205 21.2883C112.288 11.7942 126.628 12.618 133.672 20.2895C133.952 20.5941 134.225 20.9074 134.478 21.2362C141.106 29.8473 146.894 31.4497 155.618 29.5152C160.996 28.3233 165.274 29.6771 169.194 32.645C171.671 34.5191 174.043 36.9536 176.499 39.7014C182.842 46.8505 191.564 41.1502 196.707 24.3862C201.93 7.36109 215.5 -6.16826 224.868 6.65699C233.966 19.2062 239.265 28.5752 247.11 32.1736C254.937 35.7726 276.28 33.6037 276.28 33.6037" stroke="url(#paint39_linear_1442_839)" stroke-width="0.25" stroke-miterlimit="10"/>
<path d="M1.88867 27.272C1.88867 27.272 36.8929 18.4172 47.0643 21.0388C54.1164 22.8564 59.0858 27.5134 65.685 31.5492C68.2485 33.1171 71.0695 34.6033 74.3213 35.849C85.7749 40.2525 98.3174 32.0914 105.033 23.0446C105.361 22.6034 105.691 22.1676 105.991 21.7264C112.2 12.5885 126.362 13.4265 133.451 20.7452C133.734 21.0355 134.012 21.3335 134.266 21.6485C140.925 29.8985 146.704 31.3895 155.373 29.4935C160.719 28.3251 164.987 29.6565 168.883 32.6024C171.363 34.4754 173.756 36.872 176.219 39.5588C182.603 46.5203 191.247 40.9089 196.56 24.3606C201.999 7.41999 215.449 -5.48045 224.791 7.2795C233.807 19.5949 239.318 28.7241 247.299 32.2001C255.253 35.6778 276.288 33.5221 276.288 33.5221" stroke="url(#paint40_linear_1442_839)" stroke-width="0.25" stroke-miterlimit="10"/>
<path d="M2.06445 27.1803C2.06445 27.1803 36.6151 18.4255 46.9841 20.9428C54.0642 22.6616 59.0844 27.1979 65.6313 31.1344C68.1963 32.6765 71.0135 34.1428 74.2389 35.3848C85.6583 39.8025 97.9979 32.1233 104.798 23.4304C105.131 23.0057 105.472 22.5891 105.779 22.1644C112.114 13.3843 126.098 14.2344 133.232 21.2007C133.516 21.4767 133.799 21.7594 134.054 22.0601C140.743 29.9468 146.515 31.3281 155.128 29.4715C160.442 28.3268 164.702 29.6356 168.573 32.5601C171.054 34.4326 173.462 36.7941 175.94 39.4167C182.347 46.1987 190.932 40.668 196.413 24.3354C202.069 7.47928 215.371 -4.78125 224.714 7.9024C233.62 19.9939 239.371 28.8728 247.487 32.2276C255.569 35.5834 276.295 33.4415 276.295 33.4415" stroke="url(#paint41_linear_1442_839)" stroke-width="0.25" stroke-miterlimit="10"/>
<path d="M2.23828 27.0888C2.23828 27.0888 36.333 18.4355 46.9028 20.8469C54.0093 22.468 59.0818 26.8819 65.5764 30.7191C68.1437 32.2359 70.9564 33.682 74.1552 34.9206C85.5406 39.3526 97.6787 32.1541 104.563 23.8164C104.9 23.4075 105.253 23.0102 105.565 22.6024C112.024 14.1807 125.832 15.0423 133.01 21.6563C133.296 21.9181 133.584 22.1854 133.84 22.4724C140.557 29.9947 146.324 31.2678 154.882 29.4502C160.163 28.3296 164.414 29.6154 168.261 32.518C170.744 34.3894 173.166 36.7162 175.658 39.2747C182.088 45.8772 190.618 40.4266 196.263 24.3103C202.139 7.53812 215.289 -4.08198 224.634 8.52485C233.431 20.3925 239.423 29.0211 247.675 32.254C255.884 35.4886 276.3 33.3598 276.3 33.3598" stroke="url(#paint42_linear_1442_839)" stroke-width="0.25" stroke-miterlimit="10"/>
<path d="M2.41406 26.9979C2.41406 26.9979 36.0506 18.4472 46.8226 20.7516C53.9541 22.2772 59.0819 26.5666 65.5228 30.3044C68.0923 31.796 70.8997 33.2218 74.0728 34.4565C85.4241 38.9023 97.3623 32.1835 104.329 24.2024C104.671 23.81 105.034 23.4319 105.353 23.0406C111.935 14.9783 125.549 15.8613 132.791 22.1115C133.078 22.3601 133.371 22.6103 133.629 22.8842C140.371 30.0393 146.135 31.2072 154.638 29.428C159.886 28.3309 164.129 29.5943 167.95 32.4754C170.436 34.3457 172.873 36.6374 175.379 39.1317C181.831 45.5542 190.308 40.1843 196.117 24.2842C202.214 7.59541 215.211 -3.38371 224.558 9.14684C233.244 20.7911 239.477 29.1695 247.864 32.2806C256.201 35.3939 276.307 33.2783 276.307 33.2783" stroke="url(#paint43_linear_1442_839)" stroke-width="0.25" stroke-miterlimit="10"/>
<path d="M2.58984 26.9061C2.58984 26.9061 35.7675 18.4596 46.7424 20.6553C53.8982 22.0866 59.0827 26.2497 65.4691 29.8893C68.0417 31.3551 70.8437 32.7611 73.9903 33.9926C85.3075 38.4526 97.0488 32.2123 104.094 24.5885C104.442 24.212 104.815 23.8537 105.141 23.4789C111.843 15.7766 125.282 16.6717 132.57 22.5673C132.86 22.8017 133.157 23.0365 133.416 23.2961C140.181 30.083 145.946 31.1466 154.393 29.4064C159.608 28.3335 163.843 29.5737 167.639 32.4329C170.126 34.3027 172.577 36.5593 175.098 38.9894C181.573 45.2324 190 39.9432 195.969 24.2587C202.289 7.65392 215.13 -2.68475 224.48 9.76897C233.054 21.1899 239.529 29.3175 248.053 32.3067C256.517 35.2987 276.314 33.1963 276.314 33.1963" stroke="url(#paint44_linear_1442_839)" stroke-width="0.25" stroke-miterlimit="10"/>
<path d="M2.76562 26.8143C2.76562 26.8143 35.4821 18.4743 46.6622 20.5592C53.8407 21.8977 59.0836 25.9324 65.4154 29.4737C67.991 30.9143 70.787 32.3 73.9079 33.5282C85.191 38.0025 96.7384 32.2391 103.859 24.9742C104.212 24.6142 104.595 24.275 104.929 23.9172C111.75 16.5761 125.016 17.4827 132.352 23.0233C132.643 23.2433 132.945 23.4623 133.206 23.7087C139.991 30.1252 145.758 31.0861 154.15 29.3848C159.332 28.3355 163.558 29.5533 167.33 32.3911C169.819 34.2597 172.285 36.4813 174.82 38.8476C181.316 44.9112 189.696 39.7021 195.823 24.2333C202.368 7.71198 215.051 -1.98571 224.405 10.3917C232.867 21.5898 239.584 29.4661 248.243 32.334C256.834 35.2048 276.322 33.1161 276.322 33.1161" stroke="url(#paint45_linear_1442_839)" stroke-width="0.25" stroke-miterlimit="10"/>
<path d="M2.94141 26.7233C2.94141 26.7233 35.1951 18.4908 46.582 20.4637C53.7825 21.7111 59.0859 25.6158 65.3617 29.0595C67.9404 30.4742 70.731 31.8407 73.8254 33.0645C85.0744 37.5531 96.4318 32.266 103.625 25.3601C103.983 25.016 104.376 24.6966 104.716 24.3552C111.654 17.3762 124.748 18.2933 132.131 23.4788C132.425 23.6851 132.731 23.8877 132.993 24.1209C139.794 30.1653 145.568 31.0258 153.905 29.3635C159.054 28.3378 163.272 29.5331 167.019 32.3489C169.51 34.2164 171.99 36.4034 174.54 38.7056C181.057 44.5897 189.392 39.4612 195.676 24.2081C202.449 7.77021 214.971 -1.28594 224.327 11.0141C232.677 21.9899 239.638 29.6148 248.433 32.3604C257.15 35.1099 276.329 33.0344 276.329 33.0344" stroke="url(#paint46_linear_1442_839)" stroke-width="0.25" stroke-miterlimit="10"/>
<path d="M3.11719 26.6317C3.11719 26.6317 34.9067 18.509 46.5026 20.3673C53.7243 21.5247 59.089 25.2976 65.3088 28.6436C67.8905 30.0326 70.6751 31.3793 73.7437 32.5998C84.9587 37.1021 96.1289 32.2914 103.392 25.7454C103.756 25.4172 104.158 25.1181 104.505 24.7927C111.556 18.1765 124.484 19.1034 131.912 23.9338C132.208 24.1259 132.518 24.312 132.783 24.532C139.596 30.2027 145.38 30.9644 153.662 29.3405C158.778 28.339 162.988 29.5112 166.71 32.3056C169.203 34.1726 171.696 36.3239 174.262 38.5624C180.8 44.2671 189.093 39.2193 195.531 24.1819C202.532 7.82738 214.891 -0.58723 224.253 11.636C232.487 22.389 239.693 29.7625 248.623 32.3869C257.468 35.015 276.339 32.9527 276.339 32.9527" stroke="url(#paint47_linear_1442_839)" stroke-width="0.25" stroke-miterlimit="10"/>
<path d="M3.29297 26.5401C3.29297 26.5401 34.6175 18.5289 46.4224 20.2713C53.6638 21.3403 59.0922 24.9793 65.2551 28.2282C67.8406 29.5908 70.6229 30.9134 73.6612 32.135C84.855 36.6346 95.8292 32.3161 103.157 26.1307C103.527 25.8184 103.938 25.5391 104.292 25.2301C111.454 18.9772 124.218 19.9129 131.692 24.3888C131.99 24.5672 132.303 24.7368 132.57 24.9437C139.389 30.2395 145.19 30.9035 153.416 29.3186C158.5 28.3407 162.701 29.4904 166.399 32.2629C168.893 34.1288 171.401 36.2455 173.981 38.4198C180.539 43.945 188.793 38.9779 195.383 24.1562C202.616 7.88559 214.808 0.111967 224.175 12.2578C232.295 22.7886 239.752 29.8971 248.811 32.4127C257.791 34.9064 276.344 32.8704 276.344 32.8704" stroke="url(#paint48_linear_1442_839)" stroke-width="0.25" stroke-miterlimit="10"/>
<path d="M3.4668 26.4487C3.4668 26.4487 34.3248 18.5511 46.3402 20.1755C53.6013 21.1573 59.0941 24.6608 65.1995 27.8136C67.7887 29.1504 70.5642 30.4533 73.5768 31.6716C84.7373 36.1843 95.5327 32.3411 102.92 26.5173C103.297 26.221 103.717 25.9614 104.078 25.6689C111.348 19.7793 123.951 20.7243 131.471 24.8446C131.771 25.0087 132.087 25.1618 132.356 25.3555C139.176 30.2749 144.999 30.8423 153.17 29.297C158.221 28.3432 162.414 29.4698 166.086 32.2209C168.583 34.0863 171.103 36.1678 173.699 38.2779C180.275 43.6237 188.495 38.7373 195.233 24.1312C202.7 7.94404 214.723 0.812503 224.095 12.881C232.1 23.19 239.803 30.0455 248.998 32.4404C258.104 34.8118 276.349 32.79 276.349 32.79" stroke="url(#paint49_linear_1442_839)" stroke-width="0.25" stroke-miterlimit="10"/>
<path d="M3.64258 26.3571C3.64258 26.3571 34.0341 18.5752 46.2601 20.0795C53.5401 20.9751 59.0987 24.3419 65.1458 27.3982C67.7388 28.7087 70.5083 29.9923 73.4951 31.2068C84.6222 35.7327 95.2442 32.3653 102.687 26.9026C103.069 26.6222 103.498 26.3829 103.867 26.1063C111.239 20.5805 123.687 21.5343 131.253 25.2996C131.554 25.45 131.874 25.5861 132.146 25.7672C138.96 30.3095 144.813 30.7815 152.928 29.2745C157.946 28.3443 162.13 29.449 165.778 32.1776C168.277 34.0418 170.81 36.0883 173.422 38.1347C180.017 43.3016 188.204 38.4958 195.088 24.1049C202.792 8.00169 214.642 1.51169 224.021 13.5028C231.909 23.5901 239.859 30.1932 249.19 32.4662C258.423 34.7157 276.359 32.7077 276.359 32.7077" stroke="url(#paint50_linear_1442_839)" stroke-width="0.25" stroke-miterlimit="10"/>
<path d="M3.81641 26.2656C3.81641 26.2656 33.7399 18.6012 46.1779 19.9836C53.4768 20.7947 59.1014 24.0221 65.0902 26.9829C67.687 28.267 70.4504 29.5315 73.4107 30.7426C84.5045 35.2822 94.9576 32.3907 102.45 27.2885C102.84 27.0235 103.276 26.8045 103.652 26.5444C111.125 21.3819 123.421 22.345 131.03 25.7552C131.334 25.8913 131.657 26.011 131.932 26.1794C138.73 30.3453 144.621 30.7212 152.68 29.2532C157.666 28.3466 161.841 29.4288 165.464 32.136C167.965 33.9992 170.511 36.011 173.139 37.9933C179.753 42.9812 187.91 38.2567 194.938 24.0803C202.879 8.0611 214.555 2.21263 223.94 14.1258C231.712 23.992 239.909 30.3415 249.376 32.4938C258.736 34.6215 276.362 32.6272 276.362 32.6272" stroke="url(#paint51_linear_1442_839)" stroke-width="0.25" stroke-miterlimit="10"/>
<path d="M3.99219 26.1747C3.99219 26.1747 33.4477 18.6294 46.0977 19.8883C53.4148 20.6166 59.1075 23.703 65.0365 26.5688C67.6378 27.826 70.3944 29.0718 73.3282 30.2797C84.3887 34.8325 94.6797 32.4183 102.216 27.6757C102.612 27.4265 103.056 27.2273 103.44 26.9842C111.007 22.1845 123.158 23.1575 130.81 26.2126C131.116 26.3344 131.442 26.4376 131.72 26.5929C138.495 30.3823 144.432 30.6617 152.436 29.2326C157.389 28.3501 161.556 29.4093 165.154 32.0945C167.657 33.9571 170.215 35.9339 172.86 37.8514C179.491 42.6604 187.622 38.0176 194.791 24.0553C202.974 8.1206 214.471 2.91368 223.864 14.7489C231.518 24.3939 239.962 30.4904 249.565 32.5215C259.052 34.5279 276.37 32.5467 276.37 32.5467" stroke="url(#paint52_linear_1442_839)" stroke-width="0.25" stroke-miterlimit="10"/>
<path d="M4.16797 26.0831C4.16797 26.0831 33.1547 18.6596 46.0183 19.7923C53.3536 20.4382 59.1152 23.3825 64.9836 26.1533C67.5902 27.3837 70.3385 28.6108 73.2465 29.8149C84.2729 34.3814 94.408 32.4452 101.983 28.0609C102.385 27.8277 102.837 27.6488 103.229 27.4216C110.889 22.9835 122.896 23.9669 130.592 26.6675C130.9 26.7757 131.228 26.8618 131.509 27.0045C138.25 30.4196 144.244 30.6007 152.193 29.2106C157.113 28.3518 161.271 29.3884 164.845 32.0523C167.35 33.9138 169.921 35.856 172.582 37.7092C179.229 42.3399 187.338 37.7784 194.646 24.0301C203.072 8.18042 214.387 3.61448 223.788 15.3712C231.324 24.7956 240.017 30.6386 249.756 32.5478C259.37 34.4324 276.379 32.465 276.379 32.465" stroke="url(#paint53_linear_1442_839)" stroke-width="0.25" stroke-miterlimit="10"/>
<path d="M4.3418 25.9913C4.3418 25.9913 32.859 18.6913 45.9362 19.6962C53.2889 20.2609 59.1201 23.0608 64.9287 25.7384C67.5399 26.9419 70.2813 28.1503 73.1629 29.351C84.156 33.9318 94.1403 32.4748 101.747 28.4472C102.157 28.2299 102.615 28.0707 103.015 27.86C110.762 23.7819 122.632 24.7774 130.371 27.1235C130.68 27.2173 131.01 27.287 131.296 27.4171C137.993 30.4607 144.054 30.5408 151.947 29.1892C156.835 28.3544 160.985 29.3681 164.533 32.0099C167.039 33.8703 169.623 35.7785 172.3 37.567C178.964 42.0193 187.051 37.5396 194.497 24.0047C203.169 8.2407 214.299 4.31574 223.71 15.994C231.126 25.1983 240.068 30.7872 249.943 32.5752C259.684 34.3385 276.385 32.3842 276.385 32.3842" stroke="url(#paint54_linear_1442_839)" stroke-width="0.25" stroke-miterlimit="10"/>
<path d="M4.51953 25.8999C4.51953 25.8999 32.5679 18.7256 45.8579 19.5998C53.2288 20.0849 59.1297 22.7389 64.8769 25.3226C67.4934 26.4992 70.2273 27.689 73.0824 28.8859C84.0414 33.4804 93.8826 32.5062 101.514 28.8321C101.932 28.6307 102.395 28.4913 102.804 28.297C110.633 24.5773 122.372 25.5854 130.153 27.5776C130.465 27.6577 130.796 27.7104 131.086 27.8273C137.728 30.5037 143.866 30.4785 151.705 29.1658C156.56 28.3546 160.701 29.3458 164.224 31.9662C166.733 33.8261 169.328 35.6991 172.022 37.4234C178.702 41.6979 186.772 37.2999 194.352 23.978C203.273 8.30017 214.215 5.01621 223.635 16.6149C230.932 25.5992 240.124 30.9345 250.135 32.6001C260.002 34.2421 276.394 32.301 276.394 32.301" stroke="url(#paint55_linear_1442_839)" stroke-width="0.25" stroke-miterlimit="10"/>
<path d="M4.69336 25.8086C4.69336 25.8086 32.2722 18.7615 45.7758 19.504C53.1641 19.9102 59.1362 22.4165 64.8213 24.9074C67.4439 26.0566 70.1687 27.2283 72.998 28.4219C83.9236 33.0301 93.6263 32.5417 101.278 29.2182C101.704 29.0333 102.173 28.9131 102.591 28.7353C110.498 25.3712 122.109 26.3952 129.932 28.0334C130.246 28.0992 130.578 28.136 130.872 28.2397C137.449 30.5545 143.676 30.4179 151.458 29.1447C156.28 28.3577 160.413 29.3258 163.912 31.9243C166.422 33.783 169.029 35.622 171.74 37.2816C178.435 41.3783 186.491 37.0632 194.203 23.9531C203.375 8.36195 214.124 5.71842 223.555 17.2381C230.731 26.0023 240.174 31.0835 250.322 32.6278C260.316 34.1485 276.399 32.2206 276.399 32.2206" stroke="url(#paint56_linear_1442_839)" stroke-width="0.25" stroke-miterlimit="10"/>
<path d="M4.86719 25.7169C4.86719 25.7169 31.9773 18.7994 45.6936 19.408C53.0993 19.7368 59.1434 22.0938 64.7657 24.4926C67.3935 25.6138 70.1107 26.7684 72.9135 27.9577C83.8051 32.5801 93.3752 32.5812 101.041 29.604C101.476 29.4356 101.949 29.334 102.376 29.1732C110.359 26.162 121.845 27.2036 129.709 28.4889C130.026 28.5405 130.358 28.5613 130.658 28.6519C137.16 30.6122 143.485 30.3575 151.212 29.1227C156.001 28.3594 160.126 29.3049 163.6 31.8821C166.112 33.7397 168.73 35.5447 171.459 37.1395C178.168 41.0595 186.212 36.8261 194.054 23.9279C203.479 8.42399 214.034 6.4209 223.477 17.8605C230.53 26.4057 240.225 31.2323 250.509 32.6542C260.63 34.0536 276.404 32.1389 276.404 32.1389" stroke="url(#paint57_linear_1442_839)" stroke-width="0.25" stroke-miterlimit="10"/>
<path d="M5.04297 25.6259C5.04297 25.6259 31.6835 18.8401 45.6142 19.3126C53.0381 19.5645 59.1534 21.7706 64.7127 24.0778C67.3467 25.171 70.0548 26.3081 72.8318 27.494C83.6894 32.1307 93.1322 32.6257 100.808 29.9904C101.251 29.8384 101.728 29.7561 102.165 29.6118C110.219 26.9501 121.586 28.0121 129.491 28.945C129.809 28.9829 130.141 28.9873 130.447 29.0641C136.866 30.6775 143.296 30.2972 150.968 29.1014C155.724 28.3616 159.84 29.2847 163.29 31.8399C165.804 33.697 168.434 35.4679 171.18 36.9974C177.903 40.7407 185.939 36.5902 193.908 23.9027C203.59 8.48771 213.945 7.12341 223.4 18.4834C230.331 26.8096 240.276 31.3964 250.699 32.6817C260.943 33.9747 276.412 32.0583 276.412 32.0583" stroke="url(#paint58_linear_1442_839)" stroke-width="0.25" stroke-miterlimit="10"/>
<path d="M5.21875 25.5339C5.21875 25.5339 31.3905 18.882 45.534 19.2162C52.9761 19.3918 59.1633 21.4459 64.6591 23.6625C67.299 24.7271 69.9988 25.8472 72.7494 27.0299C83.5728 31.6814 92.8923 32.6753 100.574 30.3764C101.026 30.2414 101.508 30.1772 101.953 30.0504C110.077 27.7345 121.325 28.82 129.272 29.4012C129.593 29.4248 129.924 29.4138 130.237 29.4769C136.565 30.7529 143.109 30.2375 150.725 29.0801C155.449 28.3645 159.557 29.2645 162.98 31.7983C165.497 33.6543 168.137 35.3918 170.901 36.856C177.636 40.4231 185.667 36.3555 193.761 23.8782C203.703 8.55261 213.854 7.82766 223.324 19.107C230.132 27.2143 240.329 31.5459 250.889 32.7093C261.26 33.881 276.42 31.9778 276.42 31.9778" stroke="url(#paint59_linear_1442_839)" stroke-width="0.25" stroke-miterlimit="10"/>
<path d="M5.39648 25.4424C5.39648 25.4424 31.1359 18.363 45.4558 19.1203C52.8971 19.5138 59.1759 21.1212 64.6073 23.2473C67.2541 24.2834 69.9441 25.387 72.6689 26.5652C83.4575 31.2311 92.6573 32.7293 100.341 30.7619C100.802 30.6439 101.288 30.5972 101.742 30.488C109.934 28.5135 121.065 29.6264 129.053 29.8563C129.377 29.8657 129.708 29.8399 130.026 29.8887C136.261 30.8376 142.921 30.1763 150.481 29.0584C155.173 28.3664 159.272 29.2439 162.671 31.7557C165.189 33.6106 167.84 35.3146 170.623 36.7129C177.37 40.1045 185.399 36.1202 193.615 23.852C203.819 8.61703 213.763 8.53033 223.249 19.7284C229.931 27.6173 240.384 31.6931 251.08 32.7353C261.578 33.7857 276.429 31.8962 276.429 31.8962" stroke="url(#paint60_linear_1442_839)" stroke-width="0.25" stroke-miterlimit="10"/>
<path d="M5.57031 25.3512C5.57031 25.3512 30.8288 18.4315 45.3736 19.0248C52.8407 19.3293 59.1854 20.7957 64.5517 22.8323C67.2053 23.8393 69.8854 24.9265 72.5845 26.1014C83.339 30.7821 92.4199 32.7901 100.104 31.1481C100.575 31.0477 101.065 31.0181 101.527 30.9264C109.788 29.2899 120.801 30.433 128.831 30.3118C129.157 30.3068 129.514 30.2009 129.811 30.3002C135.445 32.1776 142.729 30.1153 150.233 29.0364C154.892 28.3685 158.983 29.2229 162.357 31.7134C164.878 33.5677 167.539 35.2382 170.34 36.5707C177.1 39.7872 185.128 35.8869 193.465 23.8267C203.935 8.68335 213.666 9.23488 223.168 20.3512C229.726 28.0222 240.435 31.8423 251.265 32.7621C261.891 33.6912 276.432 31.8149 276.432 31.8149" stroke="url(#paint61_linear_1442_839)" stroke-width="0.25" stroke-miterlimit="10"/>
<path d="M5.74609 25.2596C5.74609 25.2596 30.5252 18.5045 45.2935 18.9287C52.7855 19.1439 59.1969 20.4692 64.498 22.4174C67.1584 23.3953 69.8295 24.4666 72.502 25.6372C83.2217 30.3326 92.1844 32.8565 99.8703 31.5339C100.35 31.4516 100.843 31.4384 101.316 31.3643C109.645 30.0615 120.541 31.2387 128.612 30.7673C128.94 30.7481 129.289 30.629 129.601 30.7124C135.287 32.2331 142.542 30.0549 149.99 29.0144C154.616 28.3701 158.698 29.2021 162.048 31.6706C164.571 33.5238 167.242 35.1614 170.061 36.428C176.832 39.47 184.863 35.6542 193.32 23.8009C204.058 8.75085 213.573 9.93953 223.093 20.973C229.524 28.4267 240.49 31.99 251.456 32.7885C262.209 33.5963 276.441 31.7331 276.441 31.7331" stroke="url(#paint62_linear_1442_839)" stroke-width="0.25" stroke-miterlimit="10"/>
<path d="M5.92188 25.1679C5.92188 25.1679 30.2239 18.584 45.2133 18.8321C52.7295 18.9567 59.2091 20.1415 64.4443 22.0014C67.1123 22.9491 69.7727 24.005 72.4203 25.1723C83.1051 29.8831 91.949 32.9283 99.6364 31.9191C100.125 31.8549 100.622 31.8577 101.104 31.8017C109.503 30.8281 120.28 32.0431 128.393 31.2222C128.722 31.1887 129.064 31.0586 129.389 31.1239C135.126 32.2786 142.352 29.994 149.746 28.9924C154.339 28.3717 158.413 29.1817 161.738 31.6283C164.262 33.4804 166.944 35.0851 169.782 36.2858C176.564 39.1544 184.599 35.4226 193.173 23.7756C204.182 8.81996 213.477 10.6447 223.016 21.5958C229.32 28.8327 240.543 32.1386 251.645 32.8153C262.526 33.5013 276.449 31.6519 276.449 31.6519" stroke="url(#paint63_linear_1442_839)" stroke-width="0.25" stroke-miterlimit="10"/>
<path d="M6.09766 25.0771C6.09766 25.0771 29.9331 19.1227 45.1338 18.7369C52.6698 18.5459 59.222 19.8142 64.3914 21.5873C67.067 22.5049 69.7168 23.5459 72.3386 24.7088C82.9886 29.4345 91.7105 33.0065 99.4025 32.3057C99.9 32.2602 100.401 32.2783 100.892 32.2404C109.363 31.5934 120.017 32.849 128.174 31.6785C128.506 31.6307 128.841 31.4913 129.178 31.5363C134.962 32.3151 142.165 29.9333 149.503 28.9707C154.063 28.3742 158.129 29.1612 161.428 31.5857C163.955 33.4373 166.645 35.0096 169.503 36.1434C176.296 38.8391 184.339 35.1918 193.027 23.7501C204.31 8.89046 213.38 11.3512 222.941 22.2179C229.116 29.238 240.598 32.2871 251.836 32.8419C262.842 33.4066 276.456 31.5704 276.456 31.5704" stroke="url(#paint64_linear_1442_839)" stroke-width="0.25" stroke-miterlimit="10"/>
<path d="M6.27148 24.985C6.27148 24.985 29.6412 19.1761 45.0517 18.6405C52.6081 18.3781 59.2323 19.485 64.3358 21.1715C67.0189 22.0583 69.6551 23.089 72.2542 24.2442C82.8565 29.0005 91.4655 33.089 99.1658 32.6906C99.6717 32.6643 100.178 32.6966 100.677 32.6774C109.223 32.3531 119.752 33.6526 127.952 32.133C128.286 32.071 128.616 31.9805 128.964 31.9475C134.762 31.4026 141.973 29.872 149.256 28.9484C153.783 28.3755 157.84 29.1399 161.115 31.5431C163.643 33.3936 166.344 34.9341 169.221 36.0009C176.024 38.5243 184.076 34.9626 192.877 23.7245C204.437 8.96253 213.277 12.0583 222.861 22.8404C228.908 29.6443 240.648 32.4354 252.022 32.8684C263.156 33.3118 276.461 31.4888 276.461 31.4888" stroke="url(#paint65_linear_1442_839)" stroke-width="0.25" stroke-miterlimit="10"/>
<path d="M6.44727 24.8937C6.44727 24.8937 29.3528 19.2313 44.9715 18.5447C52.5484 18.2116 59.2452 19.1555 64.2821 20.7563C66.9736 21.6119 69.5991 22.6283 72.1717 23.7802C82.7399 28.5508 91.2498 32.5581 98.9319 33.0767C99.4446 33.1113 99.9581 33.1404 100.466 33.1157C109.071 32.6997 119.489 34.4575 127.733 32.5888C128.069 32.5125 128.4 32.4105 128.753 32.36C134.49 31.5368 141.785 29.8119 149.013 28.9267C153.507 28.378 157.556 29.1194 160.806 31.5006C163.336 33.3505 166.047 34.8586 168.943 35.8585C175.756 38.2106 183.82 34.7346 192.731 23.699C204.572 9.03692 213.178 12.766 222.785 23.4624C228.703 30.0507 240.704 32.5833 252.212 32.8951C263.474 33.2172 276.47 31.4073 276.47 31.4073" stroke="url(#paint66_linear_1442_839)" stroke-width="0.25" stroke-miterlimit="10"/>
<path d="M6.62109 24.8025C6.62109 24.8025 29.0631 19.2888 44.8894 18.4492C52.4867 18.0463 59.257 18.8251 64.2264 20.3419C66.9255 21.1657 69.5405 22.1683 72.0873 23.3164C82.6215 28.1013 91.0238 32.7298 98.6953 33.463C99.2141 33.5124 99.7343 33.536 100.252 33.5546C108.958 33.8685 119.222 35.2625 127.511 33.0454C127.849 32.9548 128.182 32.8418 128.539 32.7726C134.226 31.675 141.594 29.7521 148.765 28.9058C153.228 28.3806 157.267 29.0995 160.493 31.4593C163.026 33.3082 165.745 34.7856 168.661 35.7174C175.485 37.8989 183.561 34.509 192.582 23.6747C204.705 9.11422 213.071 13.476 222.706 24.0863C228.493 30.4594 240.755 32.7336 252.4 32.923C263.788 33.1238 276.475 31.3271 276.475 31.3271" stroke="url(#paint67_linear_1442_839)" stroke-width="0.25" stroke-miterlimit="10"/>
<path d="M6.79883 24.7106C6.79883 24.7106 28.7782 19.3473 44.8111 18.3529C52.4304 17.8804 59.2719 18.4934 64.1747 19.9263C66.8821 20.7176 69.4865 21.7071 72.0068 22.8519C82.5069 27.6505 90.7032 33.3612 98.4626 33.8486C98.9927 33.882 99.5152 33.9545 100.041 33.9923C108.834 34.6224 118.958 36.0668 127.293 33.5001C127.633 33.3953 127.968 33.2712 128.328 33.184C133.98 31.8131 141.406 29.6904 148.522 28.8837C152.952 28.3826 156.983 29.0785 160.184 31.4163C162.718 33.2641 165.448 34.7107 168.382 35.5745C175.216 37.5864 183.308 34.2832 192.435 23.6487C204.845 9.19194 212.967 14.1859 222.629 24.7085C228.284 30.867 240.808 32.8816 252.589 32.9496C264.105 33.0292 276.482 31.2457 276.482 31.2457" stroke="url(#paint68_linear_1442_839)" stroke-width="0.25" stroke-miterlimit="10"/>
<path d="M6.97266 24.6191C6.97266 24.6191 28.4908 19.4078 44.7297 18.257C52.371 17.7153 59.2844 18.1615 64.1198 19.5115C66.8355 20.2694 69.4293 21.2468 71.9231 22.3877C82.3891 27.2006 90.434 33.4569 98.2275 34.2345C98.7651 34.2883 99.2945 34.3739 99.8276 34.4304C108.712 35.3754 118.692 36.8709 127.073 33.9557C127.415 33.8366 127.753 33.7022 128.116 33.5962C133.744 31.9515 141.217 29.6301 148.278 28.8618C152.675 28.3844 156.698 29.0577 159.873 31.3742C162.409 33.2214 165.148 34.6367 168.102 35.4319C174.946 37.2748 183.054 34.0589 192.288 23.6231C204.987 9.27218 212.859 14.8973 222.552 25.3304C228.075 31.2743 240.862 33.0293 252.779 32.9756C264.422 32.9339 276.49 31.1635 276.49 31.1635" stroke="url(#paint69_linear_1442_839)" stroke-width="0.25" stroke-miterlimit="10"/>
<path d="M7.14844 24.5282C7.14844 24.5282 28.2061 19.47 44.6496 18.1617C52.3135 17.552 59.2974 17.8291 64.0662 19.0968C66.791 19.8212 69.3726 20.7871 71.8407 21.9242C82.2726 26.7513 90.16 33.5547 97.9928 34.621C98.5373 34.6951 99.0742 34.7933 99.6157 34.8691C108.597 36.1285 118.419 37.6663 126.853 34.4119C127.197 34.2786 127.54 34.1331 127.904 34.0086C133.52 32.0889 141.028 29.5699 148.033 28.8406C152.397 28.3867 156.411 29.0376 159.563 31.3321C162.1 33.1782 164.849 34.5639 167.823 35.29C174.678 36.9654 182.803 33.8368 192.142 23.598C205.133 9.35522 212.75 15.6103 222.477 25.9534C227.866 31.6839 240.917 33.1788 252.969 33.0032C264.739 32.8396 276.498 31.083 276.498 31.083" stroke="url(#paint70_linear_1442_839)" stroke-width="0.25" stroke-miterlimit="10"/>
<path d="M7.32422 24.4363C7.32422 24.4363 27.9222 19.5334 44.5694 18.0648C52.256 17.387 59.3103 17.494 64.0132 18.6805C66.7464 19.3704 69.3174 20.3253 71.759 21.4585C82.1568 26.2994 89.8783 33.651 97.7588 35.0054C98.3102 35.1004 98.8547 35.2107 99.4037 35.3056C108.485 36.879 118.155 38.4727 126.633 34.866C126.979 34.7184 127.327 34.5625 127.693 34.4193C133.308 32.222 140.839 29.5082 147.79 28.8173C152.121 28.3876 156.127 29.0154 159.253 31.2885C161.793 33.1335 164.552 34.4896 167.543 35.1465C174.41 36.6545 182.553 33.6148 191.995 23.5714C205.281 9.43944 212.636 16.3235 222.4 26.5743C227.654 32.0919 240.97 33.3256 253.158 33.0287C265.055 32.7439 276.505 31.0003 276.505 31.0003" stroke="url(#paint71_linear_1442_839)" stroke-width="0.25" stroke-miterlimit="10"/>
<path d="M7.5 24.3448C7.5 24.3448 27.6398 19.5983 44.4892 17.969C52.1993 17.2232 59.3241 17.159 63.9595 18.2659C66.7018 18.9206 69.2607 19.865 71.6765 20.995C82.0403 25.8502 89.5899 33.7495 97.5249 35.392C98.0823 35.5072 98.6359 35.6302 99.1918 35.7443C108.376 37.6322 117.89 39.2818 126.414 35.3223C126.762 35.1604 127.115 34.9936 127.481 34.8322C133.106 32.3539 140.65 29.448 147.545 28.7966C151.844 28.3905 155.841 28.9958 158.943 31.247C161.484 33.0915 164.254 34.4179 167.264 35.0051C174.142 36.3469 182.305 33.396 191.848 23.5469C205.431 9.52802 212.521 17.041 222.323 27.198C227.443 32.5032 241.024 33.4751 253.348 33.0563C265.372 32.6502 276.513 30.9199 276.513 30.9199" stroke="url(#paint72_linear_1442_839)" stroke-width="0.25" stroke-miterlimit="10"/>
<path d="M7.67383 24.2537C7.67383 24.2537 49.2629 14.5582 63.9039 17.851C78.5449 21.1437 87.4433 33.3999 97.2883 35.7783C107.133 38.1562 117.105 40.3514 126.192 35.7783C135.28 31.2053 150.3 25.1685 158.63 31.2052C166.961 37.242 177.815 37.4247 191.7 23.5222C205.584 9.61965 212.399 17.7599 222.244 27.8209C232.089 37.8818 276.518 30.8392 276.518 30.8392" stroke="url(#paint73_linear_1442_839)" stroke-width="0.25" stroke-miterlimit="10"/>
<defs>
<linearGradient id="paint0_linear_1442_839" x1="0.984172" y1="32.1561" x2="276.678" y2="32.1561" gradientUnits="userSpaceOnUse">
<stop stop-color="#1877B1"/>
<stop offset="0.2946" stop-color="#4319B3"/>
<stop offset="0.5919" stop-color="#642AF2"/>
<stop offset="0.8514" stop-color="#4B1DC3"/>
<stop offset="1" stop-color="#11E9EF"/>
</linearGradient>
<linearGradient id="paint1_linear_1442_839" x1="1.16642" y1="32.2384" x2="276.937" y2="32.2384" gradientUnits="userSpaceOnUse">
<stop stop-color="#1974B0"/>
<stop offset="0.2946" stop-color="#421CB3"/>
<stop offset="0.3757" stop-color="#4A22C3"/>
<stop offset="0.5919" stop-color="#632BF0"/>
<stop offset="0.7054" stop-color="#5824DC"/>
<stop offset="0.8514" stop-color="#4B1DC2"/>
<stop offset="1" stop-color="#12E3ED"/>
</linearGradient>
<linearGradient id="paint2_linear_1442_839" x1="1.34783" y1="32.3281" x2="277.196" y2="32.3281" gradientUnits="userSpaceOnUse">
<stop stop-color="#1A71B0"/>
<stop offset="0.2946" stop-color="#401FB3"/>
<stop offset="0.3757" stop-color="#4826C3"/>
<stop offset="0.5919" stop-color="#612CEE"/>
<stop offset="0.7054" stop-color="#5823DB"/>
<stop offset="0.8514" stop-color="#4A1DC1"/>
<stop offset="1" stop-color="#13DDEA"/>
</linearGradient>
<linearGradient id="paint3_linear_1442_839" x1="1.5312" y1="32.4237" x2="277.456" y2="32.4237" gradientUnits="userSpaceOnUse">
<stop stop-color="#1B6FAF"/>
<stop offset="0.2946" stop-color="#3F22B2"/>
<stop offset="0.3757" stop-color="#462AC2"/>
<stop offset="0.5919" stop-color="#602DED"/>
<stop offset="0.7054" stop-color="#5723D9"/>
<stop offset="0.8514" stop-color="#4A1CC1"/>
<stop offset="1" stop-color="#14D7E8"/>
</linearGradient>
<linearGradient id="paint4_linear_1442_839" x1="1.71464" y1="32.459" x2="277.716" y2="32.459" gradientUnits="userSpaceOnUse">
<stop stop-color="#1B6CAF"/>
<stop offset="0.2946" stop-color="#3E26B2"/>
<stop offset="0.3757" stop-color="#452EC2"/>
<stop offset="0.5919" stop-color="#5E2EEB"/>
<stop offset="0.7054" stop-color="#5723D8"/>
<stop offset="0.8514" stop-color="#491CC0"/>
<stop offset="1" stop-color="#15D1E6"/>
</linearGradient>
<linearGradient id="paint5_linear_1442_839" x1="1.89681" y1="32.3576" x2="277.976" y2="32.3576" gradientUnits="userSpaceOnUse">
<stop stop-color="#1C69AE"/>
<stop offset="0.2946" stop-color="#3C29B2"/>
<stop offset="0.3757" stop-color="#4332C1"/>
<stop offset="0.5919" stop-color="#5D2FE9"/>
<stop offset="0.7054" stop-color="#5622D7"/>
<stop offset="0.8514" stop-color="#491CBF"/>
<stop offset="1" stop-color="#16CBE3"/>
</linearGradient>
<linearGradient id="paint6_linear_1442_839" x1="2.0783" y1="32.2565" x2="278.234" y2="32.2565" gradientUnits="userSpaceOnUse">
<stop stop-color="#1D66AD"/>
<stop offset="0.2946" stop-color="#3B2CB2"/>
<stop offset="0.3757" stop-color="#4136C0"/>
<stop offset="0.5919" stop-color="#5B30E7"/>
<stop offset="0.7054" stop-color="#5522D6"/>
<stop offset="0.8514" stop-color="#491CBE"/>
<stop offset="1" stop-color="#17C5E1"/>
</linearGradient>
<linearGradient id="paint7_linear_1442_839" x1="2.26167" y1="32.1554" x2="278.494" y2="32.1554" gradientUnits="userSpaceOnUse">
<stop stop-color="#1E63AD"/>
<stop offset="0.2946" stop-color="#3A2FB1"/>
<stop offset="0.3757" stop-color="#3F39C0"/>
<stop offset="0.5919" stop-color="#5A30E6"/>
<stop offset="0.7054" stop-color="#5522D5"/>
<stop offset="0.8514" stop-color="#481CBE"/>
<stop offset="1" stop-color="#18BFDF"/>
</linearGradient>
<linearGradient id="paint8_linear_1442_839" x1="2.44113" y1="32.0549" x2="278.751" y2="32.0549" gradientUnits="userSpaceOnUse">
<stop stop-color="#1F61AC"/>
<stop offset="0.2946" stop-color="#3832B1"/>
<stop offset="0.3757" stop-color="#3D3DBF"/>
<stop offset="0.5919" stop-color="#5831E4"/>
<stop offset="0.7054" stop-color="#5422D4"/>
<stop offset="0.8514" stop-color="#481BBD"/>
<stop offset="1" stop-color="#19B9DC"/>
</linearGradient>
<linearGradient id="paint9_linear_1442_839" x1="2.62533" y1="31.9542" x2="279.012" y2="31.9542" gradientUnits="userSpaceOnUse">
<stop stop-color="#205EAB"/>
<stop offset="0.2946" stop-color="#3735B1"/>
<stop offset="0.3757" stop-color="#3B41BF"/>
<stop offset="0.5919" stop-color="#5732E2"/>
<stop offset="0.7054" stop-color="#5321D2"/>
<stop offset="0.8514" stop-color="#471BBC"/>
<stop offset="1" stop-color="#1AB3DA"/>
</linearGradient>
<linearGradient id="paint10_linear_1442_839" x1="2.80674" y1="31.854" x2="279.27" y2="31.854" gradientUnits="userSpaceOnUse">
<stop stop-color="#205BAB"/>
<stop offset="0.2946" stop-color="#3638B1"/>
<stop offset="0.3757" stop-color="#3A45BE"/>
<stop offset="0.5919" stop-color="#5533E0"/>
<stop offset="0.7054" stop-color="#5321D1"/>
<stop offset="0.8514" stop-color="#471BBB"/>
<stop offset="1" stop-color="#1BADD8"/>
</linearGradient>
<linearGradient id="paint11_linear_1442_839" x1="2.99018" y1="31.7533" x2="279.53" y2="31.7533" gradientUnits="userSpaceOnUse">
<stop stop-color="#2158AA"/>
<stop offset="0.2946" stop-color="#343CB1"/>
<stop offset="0.3757" stop-color="#3849BE"/>
<stop offset="0.5919" stop-color="#5434DE"/>
<stop offset="0.7054" stop-color="#5221D0"/>
<stop offset="0.8514" stop-color="#471BBA"/>
<stop offset="1" stop-color="#1CA7D5"/>
</linearGradient>
<linearGradient id="paint12_linear_1442_839" x1="3.1716" y1="31.6531" x2="279.789" y2="31.6531" gradientUnits="userSpaceOnUse">
<stop stop-color="#2255AA"/>
<stop offset="0.2946" stop-color="#333FB0"/>
<stop offset="0.3757" stop-color="#364DBD"/>
<stop offset="0.5919" stop-color="#5235DD"/>
<stop offset="0.7054" stop-color="#5220CF"/>
<stop offset="0.8514" stop-color="#461BBA"/>
<stop offset="1" stop-color="#1DA1D3"/>
</linearGradient>
<linearGradient id="paint13_linear_1442_839" x1="3.35572" y1="31.5532" x2="280.05" y2="31.5532" gradientUnits="userSpaceOnUse">
<stop stop-color="#2353A9"/>
<stop offset="0.2946" stop-color="#3242B0"/>
<stop offset="0.3757" stop-color="#3451BC"/>
<stop offset="0.5919" stop-color="#5136DB"/>
<stop offset="0.7054" stop-color="#5120CE"/>
<stop offset="0.8514" stop-color="#461AB9"/>
<stop offset="1" stop-color="#1E9BD1"/>
</linearGradient>
<linearGradient id="paint14_linear_1442_839" x1="3.53721" y1="31.4531" x2="280.308" y2="31.4531" gradientUnits="userSpaceOnUse">
<stop stop-color="#2450A8"/>
<stop offset="0.2946" stop-color="#3045B0"/>
<stop offset="0.3757" stop-color="#3255BC"/>
<stop offset="0.5919" stop-color="#4F37D9"/>
<stop offset="0.7054" stop-color="#5020CD"/>
<stop offset="0.8514" stop-color="#461AB8"/>
<stop offset="1" stop-color="#1F95CE"/>
</linearGradient>
<linearGradient id="paint15_linear_1442_839" x1="3.71862" y1="31.3533" x2="280.567" y2="31.3533" gradientUnits="userSpaceOnUse">
<stop stop-color="#254DA8"/>
<stop offset="0.2946" stop-color="#2F48B0"/>
<stop offset="0.3757" stop-color="#3059BB"/>
<stop offset="0.5919" stop-color="#4E38D7"/>
<stop offset="0.7054" stop-color="#501FCB"/>
<stop offset="0.8514" stop-color="#451AB7"/>
<stop offset="1" stop-color="#208FCC"/>
</linearGradient>
<linearGradient id="paint16_linear_1442_839" x1="3.90011" y1="31.2539" x2="280.825" y2="31.2539" gradientUnits="userSpaceOnUse">
<stop stop-color="#254AA7"/>
<stop offset="0.2946" stop-color="#2E4BAF"/>
<stop offset="0.3757" stop-color="#2F5DBB"/>
<stop offset="0.5919" stop-color="#4C39D6"/>
<stop offset="0.7054" stop-color="#4F1FCA"/>
<stop offset="0.8514" stop-color="#451AB7"/>
<stop offset="1" stop-color="#2189CA"/>
</linearGradient>
<linearGradient id="paint17_linear_1442_839" x1="4.08228" y1="31.1541" x2="281.084" y2="31.1541" gradientUnits="userSpaceOnUse">
<stop stop-color="#2647A7"/>
<stop offset="0.2946" stop-color="#2C4EAF"/>
<stop offset="0.3757" stop-color="#2D61BA"/>
<stop offset="0.5919" stop-color="#4B3AD4"/>
<stop offset="0.7054" stop-color="#4F1FC9"/>
<stop offset="0.8514" stop-color="#441AB6"/>
<stop offset="1" stop-color="#2283C7"/>
</linearGradient>
<linearGradient id="paint18_linear_1442_839" x1="4.26573" y1="31.1004" x2="281.345" y2="31.1004" gradientUnits="userSpaceOnUse">
<stop stop-color="#2745A6"/>
<stop offset="0.2946" stop-color="#2B51AF"/>
<stop offset="0.3757" stop-color="#2B64BA"/>
<stop offset="0.5919" stop-color="#4A3BD2"/>
<stop offset="0.7054" stop-color="#4E1FC8"/>
<stop offset="0.8514" stop-color="#441AB5"/>
<stop offset="1" stop-color="#237EC5"/>
</linearGradient>
<linearGradient id="paint19_linear_1442_839" x1="4.44909" y1="31.1142" x2="281.605" y2="31.1142" gradientUnits="userSpaceOnUse">
<stop stop-color="#2842A5"/>
<stop offset="0.2946" stop-color="#2A55AF"/>
<stop offset="0.3757" stop-color="#2968B9"/>
<stop offset="0.5919" stop-color="#483BD0"/>
<stop offset="0.7054" stop-color="#4D1EC7"/>
<stop offset="0.8514" stop-color="#4419B4"/>
<stop offset="1" stop-color="#2578C3"/>
</linearGradient>
<linearGradient id="paint20_linear_1442_839" x1="4.63126" y1="31.1265" x2="281.864" y2="31.1265" gradientUnits="userSpaceOnUse">
<stop stop-color="#293FA5"/>
<stop offset="0.2946" stop-color="#2858AF"/>
<stop offset="0.3757" stop-color="#276CB8"/>
<stop offset="0.5919" stop-color="#473CCE"/>
<stop offset="0.7054" stop-color="#4D1EC6"/>
<stop offset="0.8514" stop-color="#4319B3"/>
<stop offset="1" stop-color="#2672C0"/>
</linearGradient>
<linearGradient id="paint21_linear_1442_839" x1="4.81275" y1="31.1377" x2="282.123" y2="31.1377" gradientUnits="userSpaceOnUse">
<stop stop-color="#293CA4"/>
<stop offset="0.2946" stop-color="#275BAE"/>
<stop offset="0.3757" stop-color="#2670B8"/>
<stop offset="0.5919" stop-color="#453DCD"/>
<stop offset="0.7054" stop-color="#4C1EC5"/>
<stop offset="0.8514" stop-color="#4319B3"/>
<stop offset="1" stop-color="#276CBE"/>
</linearGradient>
<linearGradient id="paint22_linear_1442_839" x1="4.99612" y1="31.1481" x2="282.383" y2="31.1481" gradientUnits="userSpaceOnUse">
<stop stop-color="#2A39A4"/>
<stop offset="0.2946" stop-color="#265EAE"/>
<stop offset="0.3757" stop-color="#2474B7"/>
<stop offset="0.5919" stop-color="#443ECB"/>
<stop offset="0.7054" stop-color="#4C1DC3"/>
<stop offset="0.8514" stop-color="#4219B2"/>
<stop offset="1" stop-color="#2866BC"/>
</linearGradient>
<linearGradient id="paint23_linear_1442_839" x1="5.17761" y1="31.1571" x2="282.641" y2="31.1571" gradientUnits="userSpaceOnUse">
<stop stop-color="#2B36A3"/>
<stop offset="0.2946" stop-color="#2461AE"/>
<stop offset="0.3757" stop-color="#2278B7"/>
<stop offset="0.5919" stop-color="#423FC9"/>
<stop offset="0.7054" stop-color="#4B1DC2"/>
<stop offset="0.8514" stop-color="#4219B1"/>
<stop offset="1" stop-color="#2960B9"/>
</linearGradient>
<linearGradient id="paint24_linear_1442_839" x1="5.35978" y1="31.1645" x2="282.901" y2="31.1645" gradientUnits="userSpaceOnUse">
<stop stop-color="#2C34A2"/>
<stop offset="0.2946" stop-color="#2364AE"/>
<stop offset="0.3757" stop-color="#207CB6"/>
<stop offset="0.5919" stop-color="#4140C7"/>
<stop offset="0.7054" stop-color="#4A1DC1"/>
<stop offset="0.8514" stop-color="#4218B0"/>
<stop offset="1" stop-color="#2A5AB7"/>
</linearGradient>
<linearGradient id="paint25_linear_1442_839" x1="5.54119" y1="31.1699" x2="283.159" y2="31.1699" gradientUnits="userSpaceOnUse">
<stop stop-color="#2D31A2"/>
<stop offset="0.2946" stop-color="#2267AD"/>
<stop offset="0.3757" stop-color="#1E80B5"/>
<stop offset="0.5919" stop-color="#3F41C6"/>
<stop offset="0.7054" stop-color="#4A1CC0"/>
<stop offset="0.8514" stop-color="#4118B0"/>
<stop offset="1" stop-color="#2B54B5"/>
</linearGradient>
<linearGradient id="paint26_linear_1442_839" x1="5.72463" y1="31.1736" x2="283.419" y2="31.1736" gradientUnits="userSpaceOnUse">
<stop stop-color="#2E2EA1"/>
<stop offset="0.2946" stop-color="#206BAD"/>
<stop offset="0.3757" stop-color="#1C84B5"/>
<stop offset="0.5919" stop-color="#3E42C4"/>
<stop offset="0.7054" stop-color="#491CBF"/>
<stop offset="0.8514" stop-color="#4118AF"/>
<stop offset="1" stop-color="#2C4EB2"/>
</linearGradient>
<linearGradient id="paint27_linear_1442_839" x1="5.90605" y1="31.1747" x2="283.678" y2="31.1747" gradientUnits="userSpaceOnUse">
<stop stop-color="#2E2BA1"/>
<stop offset="0.2946" stop-color="#1F6EAD"/>
<stop offset="0.3757" stop-color="#1B88B4"/>
<stop offset="0.5919" stop-color="#3C43C2"/>
<stop offset="0.7054" stop-color="#491CBE"/>
<stop offset="0.8514" stop-color="#4118AE"/>
<stop offset="1" stop-color="#2D48B0"/>
</linearGradient>
<linearGradient id="paint28_linear_1442_839" x1="6.08829" y1="31.1735" x2="283.937" y2="31.1735" gradientUnits="userSpaceOnUse">
<stop stop-color="#2F28A0"/>
<stop offset="0.2946" stop-color="#1E71AD"/>
<stop offset="0.3757" stop-color="#198CB4"/>
<stop offset="0.5919" stop-color="#3B44C0"/>
<stop offset="0.7054" stop-color="#481BBC"/>
<stop offset="0.8514" stop-color="#4018AD"/>
<stop offset="1" stop-color="#2E42AE"/>
</linearGradient>
<linearGradient id="paint29_linear_1442_839" x1="6.27166" y1="31.1696" x2="284.197" y2="31.1696" gradientUnits="userSpaceOnUse">
<stop stop-color="#30269F"/>
<stop offset="0.2946" stop-color="#1C74AD"/>
<stop offset="0.3757" stop-color="#1790B3"/>
<stop offset="0.5919" stop-color="#3945BE"/>
<stop offset="0.7054" stop-color="#471BBB"/>
<stop offset="0.8514" stop-color="#4017AC"/>
<stop offset="1" stop-color="#2F3CAB"/>
</linearGradient>
<linearGradient id="paint30_linear_1442_839" x1="6.45307" y1="31.1627" x2="284.456" y2="31.1627" gradientUnits="userSpaceOnUse">
<stop stop-color="#31239F"/>
<stop offset="0.2946" stop-color="#1B77AC"/>
<stop offset="0.3757" stop-color="#1593B3"/>
<stop offset="0.5919" stop-color="#3845BD"/>
<stop offset="0.7054" stop-color="#471BBA"/>
<stop offset="0.8514" stop-color="#3F17AC"/>
<stop offset="1" stop-color="#3036A9"/>
</linearGradient>
<linearGradient id="paint31_linear_1442_839" x1="6.63652" y1="31.0015" x2="284.716" y2="31.0015" gradientUnits="userSpaceOnUse">
<stop stop-color="#32209E"/>
<stop offset="0.2946" stop-color="#1A7AAC"/>
<stop offset="0.3757" stop-color="#1397B2"/>
<stop offset="0.5919" stop-color="#3646BB"/>
<stop offset="0.7054" stop-color="#461BB9"/>
<stop offset="0.8514" stop-color="#3F17AB"/>
<stop offset="1" stop-color="#3130A7"/>
</linearGradient>
<linearGradient id="paint32_linear_1442_839" x1="6.81869" y1="30.6858" x2="284.975" y2="30.6858" gradientUnits="userSpaceOnUse">
<stop stop-color="#331D9D"/>
<stop offset="0.2946" stop-color="#187DAC"/>
<stop offset="0.3757" stop-color="#119BB1"/>
<stop offset="0.5919" stop-color="#3547B9"/>
<stop offset="0.7054" stop-color="#451AB8"/>
<stop offset="0.8514" stop-color="#3F17AA"/>
<stop offset="1" stop-color="#322AA4"/>
</linearGradient>
<linearGradient id="paint33_linear_1442_839" x1="7.00018" y1="30.3698" x2="285.234" y2="30.3698" gradientUnits="userSpaceOnUse">
<stop stop-color="#331A9D"/>
<stop offset="0.2946" stop-color="#1781AC"/>
<stop offset="0.3757" stop-color="#109FB1"/>
<stop offset="0.5919" stop-color="#3348B7"/>
<stop offset="0.7054" stop-color="#451AB7"/>
<stop offset="0.8514" stop-color="#3E17A9"/>
<stop offset="1" stop-color="#3324A2"/>
</linearGradient>
<linearGradient id="paint34_linear_1442_839" x1="7.18354" y1="30.053" x2="285.494" y2="30.053" gradientUnits="userSpaceOnUse">
<stop stop-color="#34189C"/>
<stop offset="0.2946" stop-color="#1684AB"/>
<stop offset="0.3757" stop-color="#0EA3B0"/>
<stop offset="0.5919" stop-color="#3249B6"/>
<stop offset="0.7054" stop-color="#441AB5"/>
<stop offset="0.8514" stop-color="#3E16A9"/>
<stop offset="1" stop-color="#341EA0"/>
</linearGradient>
<linearGradient id="paint35_linear_1442_839" x1="7.36496" y1="29.7318" x2="285.752" y2="29.7318" gradientUnits="userSpaceOnUse">
<stop stop-color="#35159C"/>
<stop offset="0.2946" stop-color="#1487AB"/>
<stop offset="0.3757" stop-color="#0CA7B0"/>
<stop offset="0.5919" stop-color="#304AB4"/>
<stop offset="0.7054" stop-color="#4419B4"/>
<stop offset="0.8514" stop-color="#3D16A8"/>
<stop offset="1" stop-color="#35189D"/>
</linearGradient>
<linearGradient id="paint36_linear_1442_839" x1="7.52017" y1="29.4188" x2="286.012" y2="29.4188" gradientUnits="userSpaceOnUse">
<stop stop-color="#36129B"/>
<stop offset="0.3757" stop-color="#0AABAF"/>
<stop offset="0.7054" stop-color="#4319B3"/>
<stop offset="1" stop-color="#36129B"/>
</linearGradient>
<linearGradient id="paint37_linear_1442_839" x1="1.332" y1="21.8308" x2="276.279" y2="21.8308" gradientUnits="userSpaceOnUse">
<stop stop-color="#0FD4DA"/>
<stop offset="0.2946" stop-color="#F737F7"/>
<stop offset="0.4405" stop-color="#4B1DC3"/>
<stop offset="0.6243" stop-color="#6D4AC6"/>
<stop offset="0.8514" stop-color="#4B1DC3"/>
<stop offset="1" stop-color="#11E9EF"/>
</linearGradient>
<linearGradient id="paint38_linear_1442_839" x1="1.50614" y1="21.9932" x2="276.285" y2="21.9932" gradientUnits="userSpaceOnUse">
<stop stop-color="#0FD5DB"/>
<stop offset="0.1486" stop-color="#8282E8"/>
<stop offset="0.2946" stop-color="#F538F5"/>
<stop offset="0.3757" stop-color="#9A2CD9"/>
<stop offset="0.4405" stop-color="#4E1FC3"/>
<stop offset="0.5378" stop-color="#5C34C4"/>
<stop offset="0.6243" stop-color="#6E49C6"/>
<stop offset="0.7054" stop-color="#653AC6"/>
<stop offset="0.8514" stop-color="#4D1DC3"/>
<stop offset="1" stop-color="#12E3ED"/>
</linearGradient>
<linearGradient id="paint39_linear_1442_839" x1="1.68342" y1="22.1518" x2="276.294" y2="22.1518" gradientUnits="userSpaceOnUse">
<stop stop-color="#0FD5DB"/>
<stop offset="0.1486" stop-color="#817FE7"/>
<stop offset="0.2946" stop-color="#F43AF3"/>
<stop offset="0.3757" stop-color="#9D2FD8"/>
<stop offset="0.4405" stop-color="#5121C2"/>
<stop offset="0.5378" stop-color="#5C33C4"/>
<stop offset="0.6243" stop-color="#7048C7"/>
<stop offset="0.7054" stop-color="#693AC8"/>
<stop offset="0.8514" stop-color="#4F1EC4"/>
<stop offset="1" stop-color="#13DDEB"/>
</linearGradient>
<linearGradient id="paint40_linear_1442_839" x1="1.85755" y1="22.3031" x2="276.3" y2="22.3031" gradientUnits="userSpaceOnUse">
<stop stop-color="#0FD6DC"/>
<stop offset="0.1486" stop-color="#7F7CE6"/>
<stop offset="0.2946" stop-color="#F23BF2"/>
<stop offset="0.3757" stop-color="#A032D7"/>
<stop offset="0.4405" stop-color="#5423C2"/>
<stop offset="0.5378" stop-color="#5B33C3"/>
<stop offset="0.6243" stop-color="#7147C7"/>
<stop offset="0.7054" stop-color="#6E3AC9"/>
<stop offset="0.8514" stop-color="#521EC4"/>
<stop offset="1" stop-color="#14D7E9"/>
</linearGradient>
<linearGradient id="paint41_linear_1442_839" x1="2.03287" y1="22.457" x2="276.307" y2="22.457" gradientUnits="userSpaceOnUse">
<stop stop-color="#0FD6DC"/>
<stop offset="0.1486" stop-color="#7E79E5"/>
<stop offset="0.2946" stop-color="#F13DF0"/>
<stop offset="0.3757" stop-color="#A335D6"/>
<stop offset="0.4405" stop-color="#5725C1"/>
<stop offset="0.5378" stop-color="#5A32C3"/>
<stop offset="0.6243" stop-color="#7346C8"/>
<stop offset="0.7054" stop-color="#723ACB"/>
<stop offset="0.8514" stop-color="#541EC4"/>
<stop offset="1" stop-color="#16D1E7"/>
</linearGradient>
<linearGradient id="paint42_linear_1442_839" x1="2.20708" y1="22.609" x2="276.313" y2="22.609" gradientUnits="userSpaceOnUse">
<stop stop-color="#0FD7DD"/>
<stop offset="0.1486" stop-color="#7C77E4"/>
<stop offset="0.2946" stop-color="#EF3EEE"/>
<stop offset="0.3757" stop-color="#A538D4"/>
<stop offset="0.4405" stop-color="#5A27C1"/>
<stop offset="0.5378" stop-color="#5931C2"/>
<stop offset="0.6243" stop-color="#7445C8"/>
<stop offset="0.7054" stop-color="#763ACC"/>
<stop offset="0.8514" stop-color="#561EC4"/>
<stop offset="1" stop-color="#17CBE4"/>
</linearGradient>
<linearGradient id="paint43_linear_1442_839" x1="2.38241" y1="22.7589" x2="276.32" y2="22.7589" gradientUnits="userSpaceOnUse">
<stop stop-color="#0FD8DE"/>
<stop offset="0.1486" stop-color="#7A74E3"/>
<stop offset="0.2946" stop-color="#EE40EC"/>
<stop offset="0.3757" stop-color="#A83BD3"/>
<stop offset="0.4405" stop-color="#5D29C0"/>
<stop offset="0.5378" stop-color="#5930C2"/>
<stop offset="0.6243" stop-color="#7644C9"/>
<stop offset="0.7054" stop-color="#7A39CD"/>
<stop offset="0.8514" stop-color="#581FC5"/>
<stop offset="1" stop-color="#18C5E2"/>
</linearGradient>
<linearGradient id="paint44_linear_1442_839" x1="2.55849" y1="22.9063" x2="276.328" y2="22.9063" gradientUnits="userSpaceOnUse">
<stop stop-color="#0FD8DE"/>
<stop offset="0.1486" stop-color="#7971E2"/>
<stop offset="0.2946" stop-color="#EC41EB"/>
<stop offset="0.3757" stop-color="#AB3ED2"/>
<stop offset="0.4405" stop-color="#5F2BC0"/>
<stop offset="0.5378" stop-color="#5830C1"/>
<stop offset="0.6243" stop-color="#7743C9"/>
<stop offset="0.7054" stop-color="#7E39CF"/>
<stop offset="0.8514" stop-color="#5A1FC5"/>
<stop offset="1" stop-color="#19C0E0"/>
</linearGradient>
<linearGradient id="paint45_linear_1442_839" x1="2.73382" y1="23.0513" x2="276.335" y2="23.0513" gradientUnits="userSpaceOnUse">
<stop stop-color="#0FD9DF"/>
<stop offset="0.1486" stop-color="#776EE1"/>
<stop offset="0.2946" stop-color="#EB43E9"/>
<stop offset="0.3757" stop-color="#AE41D1"/>
<stop offset="0.4405" stop-color="#622DBF"/>
<stop offset="0.5378" stop-color="#572FC1"/>
<stop offset="0.6243" stop-color="#7842CA"/>
<stop offset="0.7054" stop-color="#8239D0"/>
<stop offset="0.8514" stop-color="#5C1FC5"/>
<stop offset="1" stop-color="#1ABADE"/>
</linearGradient>
<linearGradient id="paint46_linear_1442_839" x1="2.90998" y1="23.1941" x2="276.343" y2="23.1941" gradientUnits="userSpaceOnUse">
<stop stop-color="#10D9DF"/>
<stop offset="0.1486" stop-color="#766BDF"/>
<stop offset="0.2946" stop-color="#E944E7"/>
<stop offset="0.3757" stop-color="#B145D0"/>
<stop offset="0.4405" stop-color="#652FBF"/>
<stop offset="0.5378" stop-color="#562EC0"/>
<stop offset="0.6243" stop-color="#7A41CA"/>
<stop offset="0.7054" stop-color="#8739D2"/>
<stop offset="0.8514" stop-color="#5F1FC6"/>
<stop offset="1" stop-color="#1BB4DC"/>
</linearGradient>
<linearGradient id="paint47_linear_1442_839" x1="3.08606" y1="23.3343" x2="276.351" y2="23.3343" gradientUnits="userSpaceOnUse">
<stop stop-color="#10DAE0"/>
<stop offset="0.1486" stop-color="#7468DE"/>
<stop offset="0.2946" stop-color="#E745E5"/>
<stop offset="0.3757" stop-color="#B448CF"/>
<stop offset="0.4405" stop-color="#6831BE"/>
<stop offset="0.5378" stop-color="#562DC0"/>
<stop offset="0.6243" stop-color="#7B41CA"/>
<stop offset="0.7054" stop-color="#8B39D3"/>
<stop offset="0.8514" stop-color="#6120C6"/>
<stop offset="1" stop-color="#1CAEDA"/>
</linearGradient>
<linearGradient id="paint48_linear_1442_839" x1="3.26146" y1="23.4716" x2="276.359" y2="23.4716" gradientUnits="userSpaceOnUse">
<stop stop-color="#10DAE0"/>
<stop offset="0.1486" stop-color="#7365DD"/>
<stop offset="0.2946" stop-color="#E647E4"/>
<stop offset="0.3757" stop-color="#B74BCE"/>
<stop offset="0.4405" stop-color="#6B33BE"/>
<stop offset="0.5378" stop-color="#552CBF"/>
<stop offset="0.6243" stop-color="#7D40CB"/>
<stop offset="0.7054" stop-color="#8F39D4"/>
<stop offset="0.8514" stop-color="#6320C6"/>
<stop offset="1" stop-color="#1EA8D8"/>
</linearGradient>
<linearGradient id="paint49_linear_1442_839" x1="3.4356" y1="23.6057" x2="276.365" y2="23.6057" gradientUnits="userSpaceOnUse">
<stop stop-color="#10DBE1"/>
<stop offset="0.1486" stop-color="#7162DC"/>
<stop offset="0.2946" stop-color="#E448E2"/>
<stop offset="0.3757" stop-color="#BA4ECD"/>
<stop offset="0.4405" stop-color="#6E35BD"/>
<stop offset="0.5378" stop-color="#542CBF"/>
<stop offset="0.6243" stop-color="#7E3FCB"/>
<stop offset="0.7054" stop-color="#9339D6"/>
<stop offset="0.8514" stop-color="#6520C6"/>
<stop offset="1" stop-color="#1FA2D6"/>
</linearGradient>
<linearGradient id="paint50_linear_1442_839" x1="3.611" y1="23.737" x2="276.372" y2="23.737" gradientUnits="userSpaceOnUse">
<stop stop-color="#10DCE2"/>
<stop offset="0.1486" stop-color="#6F5FDB"/>
<stop offset="0.2946" stop-color="#E34AE0"/>
<stop offset="0.3757" stop-color="#BD51CC"/>
<stop offset="0.4405" stop-color="#7137BD"/>
<stop offset="0.5378" stop-color="#542BBE"/>
<stop offset="0.6243" stop-color="#7F3ECC"/>
<stop offset="0.7054" stop-color="#9739D7"/>
<stop offset="0.8514" stop-color="#6720C7"/>
<stop offset="1" stop-color="#209CD4"/>
</linearGradient>
<linearGradient id="paint51_linear_1442_839" x1="3.78521" y1="23.8651" x2="276.378" y2="23.8651" gradientUnits="userSpaceOnUse">
<stop stop-color="#10DCE2"/>
<stop offset="0.1486" stop-color="#6E5DDA"/>
<stop offset="0.2946" stop-color="#E14BDE"/>
<stop offset="0.3757" stop-color="#BF54CA"/>
<stop offset="0.4405" stop-color="#7439BC"/>
<stop offset="0.5378" stop-color="#532ABE"/>
<stop offset="0.6243" stop-color="#813DCC"/>
<stop offset="0.7054" stop-color="#9B39D8"/>
<stop offset="0.8514" stop-color="#6921C7"/>
<stop offset="1" stop-color="#2196D1"/>
</linearGradient>
<linearGradient id="paint52_linear_1442_839" x1="3.96053" y1="23.9899" x2="276.385" y2="23.9899" gradientUnits="userSpaceOnUse">
<stop stop-color="#10DDE3"/>
<stop offset="0.1486" stop-color="#6C5AD9"/>
<stop offset="0.2946" stop-color="#E04DDD"/>
<stop offset="0.3757" stop-color="#C257C9"/>
<stop offset="0.4405" stop-color="#773BBC"/>
<stop offset="0.5378" stop-color="#5229BD"/>
<stop offset="0.6243" stop-color="#823CCD"/>
<stop offset="0.7054" stop-color="#A039DA"/>
<stop offset="0.8514" stop-color="#6C21C7"/>
<stop offset="1" stop-color="#2290CF"/>
</linearGradient>
<linearGradient id="paint53_linear_1442_839" x1="4.13669" y1="24.1108" x2="276.393" y2="24.1108" gradientUnits="userSpaceOnUse">
<stop stop-color="#10DDE3"/>
<stop offset="0.1486" stop-color="#6B57D8"/>
<stop offset="0.2946" stop-color="#DE4EDB"/>
<stop offset="0.3757" stop-color="#C55AC8"/>
<stop offset="0.4405" stop-color="#7A3DBB"/>
<stop offset="0.5378" stop-color="#5129BD"/>
<stop offset="0.6243" stop-color="#843BCD"/>
<stop offset="0.7054" stop-color="#A439DB"/>
<stop offset="0.8514" stop-color="#6E21C7"/>
<stop offset="1" stop-color="#238ACD"/>
</linearGradient>
<linearGradient id="paint54_linear_1442_839" x1="4.31014" y1="24.228" x2="276.399" y2="24.228" gradientUnits="userSpaceOnUse">
<stop stop-color="#10DEE4"/>
<stop offset="0.1486" stop-color="#6954D7"/>
<stop offset="0.2946" stop-color="#DD50D9"/>
<stop offset="0.3757" stop-color="#C85DC7"/>
<stop offset="0.4405" stop-color="#7D3FBB"/>
<stop offset="0.5378" stop-color="#5128BC"/>
<stop offset="0.6243" stop-color="#853ACE"/>
<stop offset="0.7054" stop-color="#A839DD"/>
<stop offset="0.8514" stop-color="#7021C8"/>
<stop offset="1" stop-color="#2484CB"/>
</linearGradient>
<linearGradient id="paint55_linear_1442_839" x1="4.48825" y1="24.3409" x2="276.408" y2="24.3409" gradientUnits="userSpaceOnUse">
<stop stop-color="#10DFE4"/>
<stop offset="0.1486" stop-color="#6851D6"/>
<stop offset="0.2946" stop-color="#DB51D8"/>
<stop offset="0.3757" stop-color="#CB60C6"/>
<stop offset="0.4405" stop-color="#7F41BB"/>
<stop offset="0.5378" stop-color="#5027BC"/>
<stop offset="0.6243" stop-color="#8639CE"/>
<stop offset="0.7054" stop-color="#AC39DE"/>
<stop offset="0.8514" stop-color="#7222C8"/>
<stop offset="1" stop-color="#257FC9"/>
</linearGradient>
<linearGradient id="paint56_linear_1442_839" x1="4.6617" y1="24.4504" x2="276.414" y2="24.4504" gradientUnits="userSpaceOnUse">
<stop stop-color="#10DFE5"/>
<stop offset="0.1486" stop-color="#664ED5"/>
<stop offset="0.2946" stop-color="#D952D6"/>
<stop offset="0.3757" stop-color="#CE63C5"/>
<stop offset="0.4405" stop-color="#8243BA"/>
<stop offset="0.5378" stop-color="#4F26BC"/>
<stop offset="0.6243" stop-color="#8838CE"/>
<stop offset="0.7054" stop-color="#B038DF"/>
<stop offset="0.8514" stop-color="#7422C8"/>
<stop offset="1" stop-color="#2779C7"/>
</linearGradient>
<linearGradient id="paint57_linear_1442_839" x1="4.83599" y1="24.5554" x2="276.42" y2="24.5554" gradientUnits="userSpaceOnUse">
<stop stop-color="#10E0E6"/>
<stop offset="0.1486" stop-color="#644BD4"/>
<stop offset="0.2946" stop-color="#D854D4"/>
<stop offset="0.3757" stop-color="#D166C4"/>
<stop offset="0.4405" stop-color="#8545BA"/>
<stop offset="0.5378" stop-color="#4F25BB"/>
<stop offset="0.6243" stop-color="#8937CF"/>
<stop offset="0.7054" stop-color="#B438E1"/>
<stop offset="0.8514" stop-color="#7622C9"/>
<stop offset="1" stop-color="#2873C5"/>
</linearGradient>
<linearGradient id="paint58_linear_1442_839" x1="5.01139" y1="24.656" x2="276.427" y2="24.656" gradientUnits="userSpaceOnUse">
<stop stop-color="#10E0E6"/>
<stop offset="0.1486" stop-color="#6348D3"/>
<stop offset="0.2946" stop-color="#D655D2"/>
<stop offset="0.3757" stop-color="#D469C3"/>
<stop offset="0.4405" stop-color="#8847B9"/>
<stop offset="0.5378" stop-color="#4E25BB"/>
<stop offset="0.6243" stop-color="#8B36CF"/>
<stop offset="0.7054" stop-color="#B838E2"/>
<stop offset="0.8514" stop-color="#7822C9"/>
<stop offset="1" stop-color="#296DC3"/>
</linearGradient>
<linearGradient id="paint59_linear_1442_839" x1="5.18762" y1="24.7516" x2="276.435" y2="24.7516" gradientUnits="userSpaceOnUse">
<stop stop-color="#10E1E7"/>
<stop offset="0.1486" stop-color="#6145D2"/>
<stop offset="0.2946" stop-color="#D557D1"/>
<stop offset="0.3757" stop-color="#D76CC2"/>
<stop offset="0.4405" stop-color="#8B49B9"/>
<stop offset="0.5378" stop-color="#4D24BA"/>
<stop offset="0.6243" stop-color="#8C35D0"/>
<stop offset="0.7054" stop-color="#BD38E4"/>
<stop offset="0.8514" stop-color="#7B22C9"/>
<stop offset="1" stop-color="#2A67C1"/>
</linearGradient>
<linearGradient id="paint60_linear_1442_839" x1="5.36271" y1="24.8432" x2="276.445" y2="24.8432" gradientUnits="userSpaceOnUse">
<stop stop-color="#10E1E7"/>
<stop offset="0.1486" stop-color="#6043D1"/>
<stop offset="0.2946" stop-color="#D358CF"/>
<stop offset="0.3757" stop-color="#D96FC0"/>
<stop offset="0.4405" stop-color="#8E4BB8"/>
<stop offset="0.5378" stop-color="#4C23BA"/>
<stop offset="0.6243" stop-color="#8E34D0"/>
<stop offset="0.7054" stop-color="#C138E5"/>
<stop offset="0.8514" stop-color="#7D23C9"/>
<stop offset="1" stop-color="#2B61BE"/>
</linearGradient>
<linearGradient id="paint61_linear_1442_839" x1="5.53699" y1="24.9299" x2="276.451" y2="24.9299" gradientUnits="userSpaceOnUse">
<stop stop-color="#10E2E8"/>
<stop offset="0.1486" stop-color="#5E40D0"/>
<stop offset="0.2946" stop-color="#D25ACD"/>
<stop offset="0.3757" stop-color="#DC72BF"/>
<stop offset="0.4405" stop-color="#914DB8"/>
<stop offset="0.5378" stop-color="#4C22B9"/>
<stop offset="0.6243" stop-color="#8F33D1"/>
<stop offset="0.7054" stop-color="#C538E6"/>
<stop offset="0.8514" stop-color="#7F23CA"/>
<stop offset="1" stop-color="#2C5BBC"/>
</linearGradient>
<linearGradient id="paint62_linear_1442_839" x1="5.71255" y1="25.0119" x2="276.458" y2="25.0119" gradientUnits="userSpaceOnUse">
<stop stop-color="#10E3E9"/>
<stop offset="0.1486" stop-color="#5C3DCF"/>
<stop offset="0.2946" stop-color="#D05BCB"/>
<stop offset="0.3757" stop-color="#DF75BE"/>
<stop offset="0.4405" stop-color="#944FB7"/>
<stop offset="0.5378" stop-color="#4B22B9"/>
<stop offset="0.6243" stop-color="#9032D1"/>
<stop offset="0.7054" stop-color="#C938E8"/>
<stop offset="0.8514" stop-color="#8123CA"/>
<stop offset="1" stop-color="#2D55BA"/>
</linearGradient>
<linearGradient id="paint63_linear_1442_839" x1="5.88886" y1="25.0891" x2="276.466" y2="25.0891" gradientUnits="userSpaceOnUse">
<stop stop-color="#10E3E9"/>
<stop offset="0.1486" stop-color="#5B3ACE"/>
<stop offset="0.2946" stop-color="#CF5DCA"/>
<stop offset="0.3757" stop-color="#E278BD"/>
<stop offset="0.4405" stop-color="#9751B7"/>
<stop offset="0.5378" stop-color="#4A21B8"/>
<stop offset="0.6243" stop-color="#9231D2"/>
<stop offset="0.7054" stop-color="#CD38E9"/>
<stop offset="0.8514" stop-color="#8323CA"/>
<stop offset="1" stop-color="#2F4FB8"/>
</linearGradient>
<linearGradient id="paint64_linear_1442_839" x1="6.06653" y1="25.1618" x2="276.473" y2="25.1618" gradientUnits="userSpaceOnUse">
<stop stop-color="#10E4EA"/>
<stop offset="0.1486" stop-color="#5937CD"/>
<stop offset="0.2946" stop-color="#CD5EC8"/>
<stop offset="0.3757" stop-color="#E57BBC"/>
<stop offset="0.4405" stop-color="#9A53B6"/>
<stop offset="0.5378" stop-color="#4A20B8"/>
<stop offset="0.6243" stop-color="#9331D2"/>
<stop offset="0.7054" stop-color="#D138EA"/>
<stop offset="0.8514" stop-color="#8524CA"/>
<stop offset="1" stop-color="#3049B6"/>
</linearGradient>
<linearGradient id="paint65_linear_1442_839" x1="6.24089" y1="25.2291" x2="276.48" y2="25.2291" gradientUnits="userSpaceOnUse">
<stop stop-color="#11E4EA"/>
<stop offset="0.1486" stop-color="#5834CB"/>
<stop offset="0.2946" stop-color="#CB5FC6"/>
<stop offset="0.3757" stop-color="#E87FBB"/>
<stop offset="0.4405" stop-color="#9D55B6"/>
<stop offset="0.5378" stop-color="#491FB7"/>
<stop offset="0.6243" stop-color="#9530D2"/>
<stop offset="0.7054" stop-color="#D638EC"/>
<stop offset="0.8514" stop-color="#8824CB"/>
<stop offset="1" stop-color="#3143B4"/>
</linearGradient>
<linearGradient id="paint66_linear_1442_839" x1="6.41644" y1="25.2924" x2="276.487" y2="25.2924" gradientUnits="userSpaceOnUse">
<stop stop-color="#11E5EB"/>
<stop offset="0.1486" stop-color="#5631CA"/>
<stop offset="0.2946" stop-color="#CA61C4"/>
<stop offset="0.3757" stop-color="#EB82BA"/>
<stop offset="0.4405" stop-color="#A057B5"/>
<stop offset="0.5378" stop-color="#481EB7"/>
<stop offset="0.6243" stop-color="#962FD3"/>
<stop offset="0.7054" stop-color="#DA38ED"/>
<stop offset="0.8514" stop-color="#8A24CB"/>
<stop offset="1" stop-color="#323DB2"/>
</linearGradient>
<linearGradient id="paint67_linear_1442_839" x1="6.5908" y1="25.3508" x2="276.493" y2="25.3508" gradientUnits="userSpaceOnUse">
<stop stop-color="#11E5EB"/>
<stop offset="0.1486" stop-color="#552EC9"/>
<stop offset="0.2946" stop-color="#C862C3"/>
<stop offset="0.3757" stop-color="#EE85B9"/>
<stop offset="0.4405" stop-color="#A259B5"/>
<stop offset="0.5378" stop-color="#471EB6"/>
<stop offset="0.6243" stop-color="#972ED3"/>
<stop offset="0.7054" stop-color="#DE38EF"/>
<stop offset="0.8514" stop-color="#8C24CB"/>
<stop offset="1" stop-color="#3338B0"/>
</linearGradient>
<linearGradient id="paint68_linear_1442_839" x1="6.76831" y1="25.4045" x2="276.503" y2="25.4045" gradientUnits="userSpaceOnUse">
<stop stop-color="#11E6EC"/>
<stop offset="0.1486" stop-color="#532BC8"/>
<stop offset="0.2946" stop-color="#C764C1"/>
<stop offset="0.3757" stop-color="#F188B8"/>
<stop offset="0.4405" stop-color="#A55BB4"/>
<stop offset="0.5378" stop-color="#471DB6"/>
<stop offset="0.6243" stop-color="#992DD4"/>
<stop offset="0.7054" stop-color="#E237F0"/>
<stop offset="0.8514" stop-color="#8E25CC"/>
<stop offset="1" stop-color="#3432AE"/>
</linearGradient>
<linearGradient id="paint69_linear_1442_839" x1="6.94274" y1="25.4544" x2="276.509" y2="25.4544" gradientUnits="userSpaceOnUse">
<stop stop-color="#11E7ED"/>
<stop offset="0.1486" stop-color="#5129C7"/>
<stop offset="0.2946" stop-color="#C565BF"/>
<stop offset="0.3757" stop-color="#F38BB6"/>
<stop offset="0.4405" stop-color="#A85DB4"/>
<stop offset="0.5378" stop-color="#461CB5"/>
<stop offset="0.6243" stop-color="#9A2CD4"/>
<stop offset="0.7054" stop-color="#E637F1"/>
<stop offset="0.8514" stop-color="#9025CC"/>
<stop offset="1" stop-color="#352CAB"/>
</linearGradient>
<linearGradient id="paint70_linear_1442_839" x1="7.1183" y1="25.8198" x2="276.516" y2="25.8198" gradientUnits="userSpaceOnUse">
<stop stop-color="#11E7ED"/>
<stop offset="0.1486" stop-color="#5026C6"/>
<stop offset="0.2946" stop-color="#C467BD"/>
<stop offset="0.3757" stop-color="#F68EB5"/>
<stop offset="0.4405" stop-color="#AB5FB3"/>
<stop offset="0.5378" stop-color="#451BB5"/>
<stop offset="0.6243" stop-color="#9C2BD5"/>
<stop offset="0.7054" stop-color="#EA37F3"/>
<stop offset="0.8514" stop-color="#9225CC"/>
<stop offset="1" stop-color="#3726A9"/>
</linearGradient>
<linearGradient id="paint71_linear_1442_839" x1="7.29468" y1="26.3119" x2="276.524" y2="26.3119" gradientUnits="userSpaceOnUse">
<stop stop-color="#11E8EE"/>
<stop offset="0.1486" stop-color="#4E23C5"/>
<stop offset="0.2946" stop-color="#C268BC"/>
<stop offset="0.3757" stop-color="#F991B4"/>
<stop offset="0.4405" stop-color="#AE61B3"/>
<stop offset="0.5378" stop-color="#441BB4"/>
<stop offset="0.6243" stop-color="#9D2AD5"/>
<stop offset="0.7054" stop-color="#EF37F4"/>
<stop offset="0.8514" stop-color="#9525CC"/>
<stop offset="1" stop-color="#3820A7"/>
</linearGradient>
<linearGradient id="paint72_linear_1442_839" x1="7.47039" y1="26.7995" x2="276.532" y2="26.7995" gradientUnits="userSpaceOnUse">
<stop stop-color="#11E8EE"/>
<stop offset="0.1486" stop-color="#4D20C4"/>
<stop offset="0.2946" stop-color="#C16ABA"/>
<stop offset="0.3757" stop-color="#FC94B3"/>
<stop offset="0.4405" stop-color="#B163B2"/>
<stop offset="0.5378" stop-color="#441AB4"/>
<stop offset="0.6243" stop-color="#9F29D6"/>
<stop offset="0.7054" stop-color="#F337F6"/>
<stop offset="0.8514" stop-color="#9726CD"/>
<stop offset="1" stop-color="#391AA5"/>
</linearGradient>
<linearGradient id="paint73_linear_1442_839" x1="7.64482" y1="27.2822" x2="276.538" y2="27.2822" gradientUnits="userSpaceOnUse">
<stop stop-color="#11E9EF"/>
<stop offset="0.1486" stop-color="#4B1DC3"/>
<stop offset="0.3757" stop-color="#FF97B2"/>
<stop offset="0.5378" stop-color="#4319B3"/>
<stop offset="0.7054" stop-color="#F737F7"/>
<stop offset="1" stop-color="#3A14A3"/>
</linearGradient>
</defs>
</svg>
