<svg width="32" height="32" viewBox="0 0 32 32" fill="none" xmlns="http://www.w3.org/2000/svg">
<g clip-path="url(#clip0_1442_812)">
<path d="M32.0006 16.1245C32.0006 15.0124 31.9125 13.8942 31.7245 12.8H16.6406V19.1004H25.2784C24.92 21.1323 23.4471 23.1778 21.7606 24.32L22.0819 28.16L26.8806 28.16C29.9068 25.3105 32.0006 21.1023 32.0006 16.1245Z" fill="white"/>
<path d="M16.2501 32C20.5751 32 24.2225 30.5978 26.8799 28.1774L21.7599 24.32C20.3222 25.2858 18.4185 25.7338 16.256 25.7338C12.0724 25.7338 8.31267 22.9469 7.03992 19.2H1.91992V23.2785C4.64219 28.6254 10.1869 32 16.2501 32Z" fill="white"/>
<path d="M7.03904 19.1999C6.30547 17.2527 6.62547 14.7471 7.35904 12.7999L7.67904 8.95989L1.91902 8.63989C-0.56483 13.0701 -0.621923 18.6096 1.86193 23.0399L7.03904 19.1999Z" fill="white"/>
<path d="M16.5588 6.26388C18.8943 6.22899 21.1515 7.07799 22.8429 8.63642L27.5199 4.11812C24.5584 1.43157 20.6278 -0.045454 16.5588 0.00106647C10.365 0.00106647 4.70083 3.29015 1.91992 8.64L7.36135 12.8C8.6555 9.04929 12.2851 6.26388 16.5588 6.26388Z" fill="white"/>
</g>
<defs>
<clipPath id="clip0_1442_812">
<rect width="32" height="32" fill="white"/>
</clipPath>
</defs>
</svg>
