<svg width="60" height="60" viewBox="0 0 60 60" fill="none" xmlns="http://www.w3.org/2000/svg">
<path d="M1.45459 17.347L28.7522 29.7302C29.5491 30.0923 30.4503 30.0923 31.2472 29.7302L58.5448 17.347C60.4843 16.4669 60.4843 13.536 58.5448 12.656L31.2483 0.271578C30.8568 0.0926219 30.4314 0 30.0009 0C29.5704 0 29.1449 0.0926219 28.7534 0.271578L1.45459 12.6548C-0.484863 13.5349 -0.484863 16.4669 1.45459 17.347ZM58.546 27.6923L51.7386 24.6067L32.7964 33.1931C31.9104 33.595 30.9694 33.7989 30.0003 33.7989C29.0312 33.7989 28.0913 33.595 27.2042 33.1931L8.26318 24.6067L1.45459 27.6923C-0.484863 28.5712 -0.484863 31.5009 1.45459 32.3798L28.7522 44.7536C29.5491 45.1146 30.4503 45.1146 31.2472 44.7536L58.546 32.3798C60.4855 31.5009 60.4855 28.5712 58.546 27.6923ZM58.546 42.6688L51.7644 39.595L32.7964 48.1931C31.9104 48.595 30.9694 48.7989 30.0003 48.7989C29.0312 48.7989 28.0913 48.595 27.2042 48.1931L8.2374 39.595L1.45459 42.6688C-0.484863 43.5478 -0.484863 46.4774 1.45459 47.3563L28.7522 59.7302C29.5491 60.0911 30.4503 60.0911 31.2472 59.7302L58.546 47.3563C60.4855 46.4774 60.4855 43.5478 58.546 42.6688Z" fill="#1D5AB6"/>
</svg>
