<svg width="63" height="63" viewBox="0 0 63 63" fill="none" xmlns="http://www.w3.org/2000/svg">
<path d="M37.0897 10.4329L37.6661 10.453L37.7041 10.504L37.9383 10.6362L38.1111 10.816L38.2062 10.9434L38.3194 11.121L38.4283 11.4226L38.4767 11.7469L37.2962 45.5805L37.2366 46.1492L37.1165 46.7406L36.9142 47.4036L36.6541 48.015L36.3776 48.5265L36.1468 48.8659L35.9585 49.1323L35.8332 49.3016L35.7096 49.4214L35.5843 49.5907L35.4192 49.7587L35.09 50.0698L34.8031 50.308L34.4764 50.5447L33.9674 50.8744L33.4204 51.1531L32.8553 51.3816L32.2322 51.5584L31.6109 51.6856L30.8919 51.7598L30.3544 51.7658L29.7392 51.7196L29.047 51.5962L28.4559 51.4266L27.8666 51.2075L27.3187 50.9403L26.6758 50.5456L26.2109 50.1819L25.9214 49.9237L25.6907 49.6923L25.4228 49.3851L25.2319 49.1551L24.9087 48.7219L24.7022 48.3673L24.5337 48.0636L24.2935 47.5341L24.0947 46.9564L23.9383 46.3057L23.8459 45.5331L23.8355 45.2598L23.8641 44.4418L23.9185 44.0219L24.0386 43.4304L24.2409 42.7675L24.5226 42.1072L24.7775 41.6446L25.0714 41.2082L25.1975 41.014L25.2373 41.0154L25.239 40.9658L25.2788 40.9672L25.322 40.8695L25.6331 40.5081L25.8595 40.2926L26.168 40.0056L26.5361 39.7206L26.842 39.5079L27.2084 39.2726L27.8159 38.9711L28.3405 38.7661L28.9436 38.5886L29.6047 38.4628L30.1439 38.4071L30.5423 38.3962L31.1187 38.4163L31.6735 38.4853L32.2663 38.6053L32.7588 38.7465L33.3084 38.9642L33.7586 39.1785L34.2071 39.4423L34.5182 39.6517L34.8673 39.912L35.1378 40.1448L35.7154 23.5874L34.446 24.0395L33.2975 24.4461L32.169 24.8534L31.0205 25.2601L29.8919 25.6674L28.7435 26.074L27.6149 26.4813L26.9097 26.7297L25.8823 27.0909L25.2575 27.3173L24.23 27.6785L23.8066 27.8375L22.6581 28.2441L21.5702 28.628L20.9454 28.8544L19.7969 29.261L19.1722 29.4874L17.7213 30.0076L15.1824 30.9117L14.5377 31.1373L14.498 31.1359L13.7015 53.9643L13.6402 54.5826L13.52 55.174L13.2953 55.9107L13.1 56.3754L12.8442 56.8628L12.6757 57.1299L12.445 57.4693L12.216 57.7591L11.8841 58.1446L11.6577 58.36L11.37 58.623L11.0018 58.9079L10.6553 59.144L10.1878 59.4255L9.80325 59.6106L9.23809 59.839L8.63492 60.0165L7.89348 60.1644L7.51326 60.2256L5.82387 60.1666L5.76597 60.115L5.05565 59.9413L4.56396 59.7752L4.05412 59.5589L3.68255 59.3722L3.21505 59.0829L2.80719 58.7957L2.49783 58.5368L2.17033 58.2275L1.84456 57.8687L1.65359 57.6387L1.3114 57.1801L1.10488 56.8255L0.936379 56.5218L0.751464 56.1183L0.550996 55.5901L0.392009 55.0138L0.309064 54.5394L0.247723 54.0161L0.229592 53.395L0.269357 52.8256L0.371342 52.184L0.487149 51.7165L0.644436 51.2008L0.861348 50.6872L1.15949 50.1269L1.36949 49.8116L1.55787 49.5452L1.60022 49.4722L1.63997 49.4736L1.68318 49.3758L2.07724 48.918L2.30365 48.7026L2.50932 48.5112L2.77548 48.2972L3.08226 48.0597L3.61112 47.7307L4.09764 47.4747L4.66279 47.2463L5.16572 47.0901L5.74729 46.9615L6.30726 46.8818L6.88537 46.8523L7.52138 46.8745L8.09603 46.9442L8.66895 47.0634L9.24014 47.2322L9.73097 47.4231L10.2201 47.6635L10.7463 47.9797L11.2121 48.3185L11.5405 48.603L12.5531 20.1487L12.6257 19.779L12.7769 19.4369L12.9644 19.1952L13.1088 19.0514L13.4942 18.8415L14.9451 18.3213L16.0935 17.9147L17.2221 17.5074L18.0681 17.2143L18.6929 16.9879L19.3375 16.7622L19.9623 16.5358L20.607 16.3102L21.2318 16.0838L22.6827 15.5636L25.3425 14.6141L26.1885 14.321L26.8133 14.0947L27.9617 13.688L28.5865 13.4617L29.2312 13.236L29.856 13.0096L31.3069 12.4895L33.4024 11.7436L34.3089 11.4278L34.9337 11.2014L36.2636 10.7267L37.0897 10.4329ZM36.0363 13.8208L31.7648 15.3345L30.6362 15.7419L29.4878 16.1485L28.5208 16.487L27.896 16.7134L26.7475 17.12L26.1228 17.3464L24.7928 17.8211L23.6444 18.2278L22.5158 18.6351L21.6698 18.9282L21.045 19.1546L19.5941 19.6747L17.559 20.3978L16.5921 20.7364L15.9673 20.9627L14.8793 21.3467L14.8387 21.3701L14.6044 28.0872L14.785 28.0439L15.974 27.6138L17.1225 27.2072L18.2511 26.7999L28.5275 23.1381L29.4945 22.7996L30.1193 22.5732L30.7639 22.3476L31.3887 22.1212L32.0334 21.8955L32.6581 21.6691L33.9881 21.1944L35.1365 20.7878L35.7812 20.5621L35.8425 20.5146L36.076 13.8222L36.0363 13.8208ZM30.6597 41.3039L30.022 41.3312L29.6418 41.3924L29.0801 41.5217L28.6765 41.6814L28.2116 41.8885L27.7432 42.1948L27.4771 42.4088L27.2092 42.6725L26.9612 42.9368L26.7521 43.2273L26.6259 43.4214L26.4556 43.7381L26.3243 44.081L26.2309 44.4748L26.1765 44.8948L26.1834 45.2673L26.2473 45.7162L26.3355 46.0419L26.4634 46.369L26.6319 46.6726L26.8392 47.0025L26.9913 47.2063L27.2022 47.437L27.4519 47.6939L27.8399 47.9804L28.151 48.1898L28.6003 48.4288L28.9537 48.5653L29.6632 48.7637L30.396 48.8637L30.7745 48.8521L31.3733 48.7986L32.0353 48.648L32.3576 48.5351L32.883 48.3053L33.2287 48.094L33.5752 47.8579L33.9044 47.5468L34.1723 47.2832L34.1741 47.2336L34.2138 47.235L34.4445 46.8956L34.6338 46.6044L34.8066 46.2133L34.9198 45.8202L34.9691 45.549L34.9907 44.9293L34.9277 44.4556L34.7851 43.9791L34.6183 43.6258L34.3738 43.2202L34.2986 43.0935L34.0878 42.8628L33.8389 42.5812L33.4129 42.2437L33.0439 41.9826L32.3984 41.6623L31.6898 41.4391L31.0763 41.3432L30.6597 41.3039ZM6.94319 49.7579L6.22509 49.8073L5.70401 49.9132L5.26157 50.0466L4.83727 50.2304L4.41124 50.4637L4.06472 50.6997L3.83917 50.8904L3.57128 51.154L3.40623 51.322L3.17636 51.6366L2.92402 52.0249L2.72871 52.4896L2.6371 52.8338L2.58611 53.1546L2.56968 53.6256L2.6146 54.049L2.71915 54.4746L2.86518 54.8519L3.10973 55.2575L3.26008 55.5109L3.45105 55.7409L3.71979 56.0233L3.93236 56.2044L4.37825 56.5426L4.65132 56.701L5.00302 56.887L5.37632 57.0241L5.94751 57.1929L6.6008 57.2902L7.07781 57.3068L7.75616 57.256L8.43797 57.1061L8.8614 56.9472L9.40755 56.6932L9.93727 56.3395L10.1222 56.1722L10.3486 55.9568L10.5966 55.6924L10.7634 55.4749L11.0158 55.0866L11.1886 54.6956L11.3009 54.3273L11.3753 53.908L11.3891 53.5114L11.3606 53.1878L11.2941 52.8132L11.1688 52.4118L11.0392 52.1343L10.8326 51.7796L10.6244 51.4746L10.3755 51.1929L10.0869 50.9098L9.56325 50.5193L9.29018 50.3609L8.74233 50.0936L7.99399 49.869L7.2612 49.769L6.94319 49.7579Z" fill="#3300FF"/>
<path d="M60.6249 2.04203L61.2013 2.06214L61.2393 2.1131L61.4735 2.24535L61.6463 2.4251L61.7414 2.5525L61.8546 2.73016L61.9634 3.03176L62.0118 3.35607L60.8314 37.1897L60.7718 37.7584L60.6516 38.3498L60.4494 39.0128L60.1893 39.6241L59.9127 40.1356L59.682 40.475L59.4936 40.7414L59.3683 40.9107L59.2447 41.0305L59.1194 41.1999L58.9544 41.3678L58.6251 41.6789L58.3382 41.9171L58.0116 42.1539L57.5026 42.4836L56.9556 42.7623L56.3904 42.9907L55.7674 43.1675L55.1461 43.2947L54.4271 43.3689L53.8896 43.375L53.2743 43.3287L52.5822 43.2053L51.9911 43.0358L51.4017 42.8167L50.8539 42.5494L50.211 42.1547L49.7461 41.7911L49.4566 41.5328L49.2259 41.3014L48.958 40.9942L48.767 40.7642L48.4439 40.3311L48.2373 39.9764L48.0688 39.6727L47.8286 39.1432L47.6299 38.5655L47.4735 37.9148L47.381 37.1423L47.3707 36.8689L47.3992 36.051L47.4537 35.631L47.5738 35.0396L47.776 34.3766L48.0578 33.7164L48.3127 33.2537L48.6065 32.8173L48.7327 32.6232L48.7724 32.6245L48.7742 32.575L48.8139 32.5764L48.8571 32.4786L49.1682 32.1172L49.3946 31.9018L49.7031 31.6147L50.0713 31.3298L50.3772 31.1171L50.7436 30.8817L51.3511 30.5803L51.8756 30.3752L52.4788 30.1977L53.1399 30.0719L53.6791 30.0163L54.0775 30.0053L54.6538 30.0255L55.2086 30.0944L55.8014 30.2144L56.294 30.3557L56.8436 30.5734L57.2938 30.7876L57.7422 31.0514L58.0533 31.2608L58.4024 31.5212L58.6729 31.7539L59.2506 15.1966L57.9811 15.6486L56.8327 16.0552L55.7041 16.4626L54.5557 16.8692L53.4271 17.2765L52.2786 17.6831L51.1501 18.0905L50.4449 18.3389L49.4174 18.7001L48.7927 18.9264L47.7652 19.2877L47.3417 19.4466L46.1933 19.8532L45.1053 20.2372L44.4806 20.4635L43.3321 20.8702L42.7073 21.0965L41.2564 21.6167L38.7175 22.5208L38.0729 22.7465L38.0331 22.7451L37.2367 45.5734L37.1753 46.1917L37.0552 46.7831L36.8305 47.5198L36.6352 47.9845L36.3794 48.4719L36.2109 48.739L35.9801 49.0784L35.7511 49.3682L35.4193 49.7537L35.1929 49.9691L34.9051 50.2321L34.537 50.517L34.1905 50.7531L33.723 51.0346L33.3384 51.2197L32.7732 51.4482L32.1701 51.6257L31.4286 51.7735L31.0484 51.8347L29.359 51.7758L29.3011 51.7241L28.5908 51.5504L28.0991 51.3844L27.5893 51.168L27.2177 50.9814L26.7502 50.6921L26.3423 50.4049L26.033 50.1459L25.7055 49.8367L25.3797 49.4779L25.1887 49.2479L24.8466 48.7892L24.64 48.4346L24.4715 48.1309L24.2866 47.7274L24.0862 47.1992L23.9272 46.6229L23.8442 46.1485L23.7829 45.6252L23.7647 45.0042L23.8045 44.4348L23.9065 43.7931L24.0223 43.3256L24.1796 42.8099L24.3965 42.2964L24.6946 41.736L24.9046 41.4207L25.093 41.1543L25.1354 41.0813L25.1751 41.0827L25.2183 40.9849L25.6124 40.5272L25.8388 40.3117L26.0445 40.1204L26.3106 39.9063L26.6174 39.6688L27.1463 39.3399L27.6328 39.0838L28.1979 38.8554L28.7009 38.6992L29.2825 38.5706L29.8424 38.4909L30.4205 38.4614L31.0565 38.4836L31.6312 38.5533L32.2041 38.6725L32.7753 38.8414L33.2661 39.0322L33.7552 39.2726L34.2815 39.5888L34.7472 39.9277L35.0756 40.2121L36.0882 11.7579L36.1608 11.3882L36.3121 11.046L36.4996 10.8044L36.6439 10.6605L37.0293 10.4506L38.4802 9.93045L39.6287 9.52382L40.7573 9.11649L41.6033 8.82339L42.228 8.59702L42.8727 8.37135L43.4975 8.14498L44.1421 7.9193L44.7669 7.69293L46.2178 7.17277L48.8777 6.22327L49.7237 5.93017L50.3484 5.7038L51.4969 5.29717L52.1217 5.0708L52.7663 4.84512L53.3911 4.61875L54.842 4.09859L56.9376 3.35275L57.8441 3.03694L58.4688 2.81057L59.7988 2.33582L60.6249 2.04203ZM59.5714 5.42998L55.2999 6.94367L54.1714 7.35099L53.0229 7.75762L52.0559 8.09614L51.4311 8.32251L50.2827 8.72914L49.6579 8.95551L48.328 9.43026L47.1795 9.83689L46.051 10.2442L45.205 10.5373L44.5802 10.7637L43.1293 11.2838L41.0942 12.007L40.1272 12.3455L39.5024 12.5719L38.4145 12.9558L38.3739 12.9792L38.1395 19.6963L38.3201 19.653L39.5092 19.223L40.6576 18.8163L41.7862 18.409L52.0627 14.7472L53.0297 14.4087L53.6544 14.1824L54.2991 13.9567L54.9239 13.7303L55.5685 13.5046L56.1933 13.2783L57.5232 12.8035L58.6717 12.3969L59.3163 12.1712L59.3777 12.1237L59.6112 5.43136L59.5714 5.42998ZM54.1949 32.913L53.5572 32.9404L53.1769 33.0016L52.6152 33.1309L52.2117 33.2905L51.7468 33.4976L51.2784 33.8039L51.0122 34.018L50.7444 34.2816L50.4963 34.5459L50.2872 34.8364L50.161 35.0306L49.9908 35.3473L49.8594 35.6901L49.7661 36.0839L49.7117 36.5039L49.7186 36.8764L49.7825 37.3253L49.8706 37.651L49.9985 37.9781L50.167 38.2818L50.3744 38.6116L50.5265 38.8155L50.7373 39.0462L50.9871 39.303L51.375 39.5896L51.6861 39.799L52.1355 40.038L52.4889 40.1744L53.1984 40.3729L53.9311 40.4729L54.3096 40.4613L54.9085 40.4077L55.5704 40.2571L55.8928 40.1443L56.4182 39.9144L56.7638 39.7031L57.1103 39.467L57.4396 39.1559L57.7075 38.8923L57.7092 38.8427L57.749 38.8441L57.9797 38.5047L58.1689 38.2135L58.3418 37.8225L58.455 37.4294L58.5043 37.1581L58.5259 36.5384L58.4628 36.0647L58.3202 35.5882L58.1535 35.235L57.9089 34.8294L57.8338 34.7027L57.6229 34.472L57.374 34.1903L56.948 33.8528L56.5791 33.5918L55.9335 33.2715L55.225 33.0482L54.6114 32.9523L54.1949 32.913ZM30.4783 41.367L29.7602 41.4164L29.2392 41.5223L28.7967 41.6558L28.3724 41.8395L27.9464 42.0728L27.5999 42.3089L27.3743 42.4995L27.1064 42.7632L26.9414 42.9311L26.7115 43.2457L26.4592 43.634L26.2639 44.0987L26.1723 44.4429L26.1213 44.7638L26.1048 45.2347L26.1498 45.6582L26.2543 46.0837L26.4003 46.461L26.6449 46.8666L26.7952 47.12L26.9862 47.3501L27.2549 47.6324L27.4675 47.8135L27.9134 48.1517L28.1865 48.3101L28.5382 48.4961L28.9115 48.6332L29.4827 48.8021L30.136 48.8993L30.613 48.916L31.2913 48.8652L31.9731 48.7152L32.3966 48.5563L32.9427 48.3024L33.4724 47.9486L33.6574 47.7813L33.8838 47.5659L34.1318 47.3016L34.2986 47.084L34.5509 46.6958L34.7237 46.3047L34.8361 45.9364L34.9104 45.5171L34.9243 45.1205L34.8957 44.7969L34.8292 44.4223L34.7039 44.0209L34.5743 43.7434L34.3678 43.3888L34.1595 43.0837L33.9107 42.802L33.6221 42.519L33.0984 42.1285L32.8253 41.97L32.2775 41.7027L31.5291 41.4781L30.7964 41.3781L30.4783 41.367Z" fill="#3300FF"/>
</svg>
