<svg width="63" height="64" viewBox="0 0 63 64" fill="none" xmlns="http://www.w3.org/2000/svg">
<path d="M37.0897 11.4051L37.6661 11.4252L37.7041 11.4761L37.9383 11.6084L38.1111 11.7881L38.2062 11.9155L38.3194 12.0932L38.4283 12.3948L38.4767 12.7191L37.2962 46.5527L37.2366 47.1214L37.1165 47.7128L36.9142 48.3758L36.6541 48.9871L36.3776 49.4986L36.1468 49.838L35.9585 50.1044L35.8332 50.2738L35.7096 50.3936L35.5843 50.5629L35.4192 50.7309L35.09 51.042L34.8031 51.2801L34.4764 51.5169L33.9674 51.8466L33.4204 52.1253L32.8553 52.3538L32.2322 52.5305L31.6109 52.6578L30.8919 52.732L30.3544 52.738L29.7392 52.6917L29.047 52.5683L28.4559 52.3988L27.8666 52.1797L27.3187 51.9124L26.6758 51.5177L26.2109 51.1541L25.9214 50.8958L25.6907 50.6644L25.4228 50.3573L25.2319 50.1273L24.9087 49.6941L24.7022 49.3395L24.5337 49.0358L24.2935 48.5063L24.0947 47.9285L23.9383 47.2778L23.8459 46.5053L23.8355 46.232L23.8641 45.414L23.9185 44.994L24.0386 44.4026L24.2409 43.7396L24.5226 43.0794L24.7775 42.6168L25.0714 42.1803L25.1975 41.9862L25.2373 41.9876L25.239 41.938L25.2788 41.9394L25.322 41.8416L25.6331 41.4802L25.8595 41.2648L26.168 40.9778L26.5361 40.6928L26.842 40.4801L27.2084 40.2447L27.8159 39.9433L28.3405 39.7383L28.9436 39.5608L29.6047 39.4349L30.1439 39.3793L30.5423 39.3684L31.1187 39.3885L31.6735 39.4575L32.2663 39.5774L32.7588 39.7187L33.3084 39.9364L33.7586 40.1506L34.2071 40.4145L34.5182 40.6238L34.8673 40.8842L35.1378 41.117L35.7154 24.5596L34.446 25.0116L33.2975 25.4183L32.169 25.8256L31.0205 26.2322L29.8919 26.6396L28.7435 27.0462L27.6149 27.4535L26.9097 27.7019L25.8823 28.0631L25.2575 28.2895L24.23 28.6507L23.8066 28.8096L22.6581 29.2163L21.5702 29.6002L20.9454 29.8266L19.7969 30.2332L19.1722 30.4596L17.7213 30.9797L15.1824 31.8838L14.5377 32.1095L14.498 32.1081L13.7015 54.9365L13.6402 55.5548L13.52 56.1462L13.2953 56.8828L13.1 57.3475L12.8442 57.8349L12.6757 58.102L12.445 58.4414L12.216 58.7312L11.8841 59.1167L11.6577 59.3322L11.37 59.5951L11.0018 59.8801L10.6553 60.1162L10.1878 60.3976L9.80325 60.5828L9.23809 60.8112L8.63492 60.9887L7.89348 61.1366L7.51326 61.1977L5.82387 61.1388L5.76597 61.0871L5.05565 60.9135L4.56396 60.7474L4.05412 60.5311L3.68255 60.3444L3.21505 60.0551L2.80719 59.7679L2.49783 59.5089L2.17033 59.1997L1.84456 58.8409L1.65359 58.6109L1.3114 58.1523L1.10488 57.7976L0.936379 57.4939L0.751464 57.0904L0.550996 56.5623L0.392009 55.9859L0.309064 55.5115L0.247723 54.9882L0.229592 54.3672L0.269357 53.7978L0.371342 53.1561L0.487149 52.6887L0.644436 52.173L0.861348 51.6594L1.15949 51.099L1.36949 50.7837L1.55787 50.5173L1.60022 50.4443L1.63997 50.4457L1.68318 50.348L2.07724 49.8902L2.30365 49.6748L2.50932 49.4834L2.77548 49.2693L3.08226 49.0319L3.61112 48.7029L4.09764 48.4469L4.66279 48.2184L5.16572 48.0623L5.74729 47.9337L6.30726 47.8539L6.88537 47.8245L7.52138 47.8466L8.09603 47.9163L8.66895 48.0356L9.24014 48.2044L9.73097 48.3953L10.2201 48.6357L10.7463 48.9518L11.2121 49.2907L11.5405 49.5751L12.5531 21.1209L12.6257 20.7512L12.7769 20.409L12.9644 20.1674L13.1088 20.0236L13.4942 19.8136L14.9451 19.2935L16.0935 18.8869L17.2221 18.4795L18.0681 18.1864L18.6929 17.9601L19.3375 17.7344L19.9623 17.508L20.607 17.2823L21.2318 17.056L22.6827 16.5358L25.3425 15.5863L26.1885 15.2932L26.8133 15.0668L27.9617 14.6602L28.5865 14.4338L29.2312 14.2082L29.856 13.9818L31.3069 13.4616L33.4024 12.7158L34.3089 12.4L34.9337 12.1736L36.2636 11.6989L37.0897 11.4051ZM36.0363 14.793L31.7648 16.3067L30.6362 16.714L29.4878 17.1207L28.5208 17.4592L27.896 17.6855L26.7475 18.0922L26.1228 18.3185L24.7928 18.7933L23.6444 19.1999L22.5158 19.6073L21.6698 19.9004L21.045 20.1267L19.5941 20.6469L17.559 21.37L16.5921 21.7085L15.9673 21.9349L14.8793 22.3188L14.8387 22.3422L14.6044 29.0594L14.785 29.016L15.974 28.586L17.1225 28.1794L18.2511 27.772L28.5275 24.1103L29.4945 23.7718L30.1193 23.5454L30.7639 23.3197L31.3887 23.0934L32.0334 22.8677L32.6581 22.6413L33.9881 22.1666L35.1365 21.7599L35.7812 21.5343L35.8425 21.4868L36.076 14.7944L36.0363 14.793ZM30.6597 42.276L30.022 42.3034L29.6418 42.3646L29.0801 42.4939L28.6765 42.6535L28.2116 42.8607L27.7432 43.1669L27.4771 43.381L27.2092 43.6446L26.9612 43.909L26.7521 44.1995L26.6259 44.3936L26.4556 44.7103L26.3243 45.0531L26.2309 45.447L26.1765 45.8669L26.1834 46.2394L26.2473 46.6884L26.3355 47.014L26.4634 47.3411L26.6319 47.6448L26.8392 47.9747L26.9913 48.1785L27.2022 48.4092L27.4519 48.6661L27.8399 48.9526L28.151 49.162L28.6003 49.401L28.9537 49.5374L29.6632 49.7359L30.396 49.8359L30.7745 49.8243L31.3733 49.7707L32.0353 49.6201L32.3576 49.5073L32.883 49.2775L33.2287 49.0662L33.5752 48.8301L33.9044 48.519L34.1723 48.2553L34.1741 48.2057L34.2138 48.2071L34.4445 47.8677L34.6338 47.5765L34.8066 47.1855L34.9198 46.7924L34.9691 46.5211L34.9907 45.9015L34.9277 45.4278L34.7851 44.9513L34.6183 44.598L34.3738 44.1924L34.2986 44.0657L34.0878 43.835L33.8389 43.5533L33.4129 43.2159L33.0439 42.9548L32.3984 42.6345L31.6898 42.4112L31.0763 42.3154L30.6597 42.276ZM6.94319 50.73L6.22509 50.7794L5.70401 50.8853L5.26157 51.0188L4.83727 51.2025L4.41124 51.4358L4.06472 51.6719L3.83917 51.8626L3.57128 52.1262L3.40623 52.2942L3.17636 52.6088L2.92402 52.997L2.72871 53.4617L2.6371 53.806L2.58611 54.1268L2.56968 54.5977L2.6146 55.0212L2.71915 55.4467L2.86518 55.8241L3.10973 56.2297L3.26008 56.4831L3.45105 56.7131L3.71979 56.9955L3.93236 57.1766L4.37825 57.5148L4.65132 57.6732L5.00302 57.8592L5.37632 57.9963L5.94751 58.1651L6.6008 58.2624L7.07781 58.279L7.75616 58.2282L8.43797 58.0783L8.8614 57.9193L9.40755 57.6654L9.93727 57.3116L10.1222 57.1444L10.3486 56.9289L10.5966 56.6646L10.7634 56.4471L11.0158 56.0588L11.1886 55.6678L11.3009 55.2994L11.3753 54.8801L11.3891 54.4836L11.3606 54.1599L11.2941 53.7854L11.1688 53.3839L11.0392 53.1064L10.8326 52.7518L10.6244 52.4467L10.3755 52.1651L10.0869 51.882L9.56325 51.4915L9.29018 51.3331L8.74233 51.0658L7.99399 50.8411L7.2612 50.7411L6.94319 50.73Z" fill="#1D5AB6"/>
<path d="M60.6249 3.0142L61.2013 3.03431L61.2393 3.08527L61.4735 3.21752L61.6463 3.39727L61.7414 3.52467L61.8546 3.70233L61.9634 4.00393L62.0118 4.32824L60.8314 38.1618L60.7718 38.7305L60.6516 39.3219L60.4494 39.9849L60.1893 40.5963L59.9127 41.1078L59.682 41.4472L59.4936 41.7136L59.3683 41.8829L59.2447 42.0027L59.1194 42.172L58.9544 42.34L58.6251 42.6511L58.3382 42.8893L58.0116 43.126L57.5026 43.4557L56.9556 43.7344L56.3904 43.9629L55.7674 44.1397L55.1461 44.2669L54.4271 44.3411L53.8896 44.3471L53.2743 44.3009L52.5822 44.1774L51.9911 44.0079L51.4017 43.7888L50.8539 43.5216L50.211 43.1269L49.7461 42.7632L49.4566 42.505L49.2259 42.2736L48.958 41.9664L48.767 41.7364L48.4439 41.3032L48.2373 40.9486L48.0688 40.6449L47.8286 40.1154L47.6299 39.5377L47.4735 38.887L47.381 38.1144L47.3707 37.8411L47.3992 37.0231L47.4537 36.6032L47.5738 36.0117L47.776 35.3487L48.0578 34.6885L48.3127 34.2259L48.6065 33.7895L48.7327 33.5953L48.7724 33.5967L48.7742 33.5471L48.8139 33.5485L48.8571 33.4508L49.1682 33.0894L49.3946 32.8739L49.7031 32.5869L50.0713 32.3019L50.3772 32.0892L50.7436 31.8539L51.3511 31.5524L51.8756 31.3474L52.4788 31.1699L53.1399 31.0441L53.6791 30.9884L54.0775 30.9775L54.6538 30.9976L55.2086 31.0666L55.8014 31.1866L56.294 31.3278L56.8436 31.5455L57.2938 31.7598L57.7422 32.0236L58.0533 32.233L58.4024 32.4933L58.6729 32.7261L59.2506 16.1687L57.9811 16.6208L56.8327 17.0274L55.7041 17.4347L54.5557 17.8414L53.4271 18.2487L52.2786 18.6553L51.1501 19.0626L50.4449 19.311L49.4174 19.6722L48.7927 19.8986L47.7652 20.2598L47.3417 20.4188L46.1933 20.8254L45.1053 21.2093L44.4806 21.4357L43.3321 21.8423L42.7073 22.0687L41.2564 22.5889L38.7175 23.493L38.0729 23.7186L38.0331 23.7172L37.2367 46.5456L37.1753 47.1639L37.0552 47.7553L36.8305 48.492L36.6352 48.9567L36.3794 49.4441L36.2109 49.7112L35.9801 50.0506L35.7511 50.3404L35.4193 50.7259L35.1929 50.9413L34.9051 51.2043L34.537 51.4892L34.1905 51.7253L33.723 52.0068L33.3384 52.1919L32.7732 52.4203L32.1701 52.5978L31.4286 52.7457L31.0484 52.8069L29.359 52.7479L29.3011 52.6963L28.5908 52.5226L28.0991 52.3565L27.5893 52.1402L27.2177 51.9535L26.7502 51.6642L26.3423 51.377L26.033 51.1181L25.7055 50.8088L25.3797 50.45L25.1887 50.22L24.8466 49.7614L24.64 49.4068L24.4715 49.1031L24.2866 48.6996L24.0862 48.1714L23.9272 47.5951L23.8442 47.1207L23.7829 46.5974L23.7647 45.9763L23.8045 45.4069L23.9065 44.7653L24.0223 44.2978L24.1796 43.7821L24.3965 43.2685L24.6946 42.7082L24.9046 42.3929L25.093 42.1265L25.1354 42.0535L25.1751 42.0549L25.2183 41.9571L25.6124 41.4993L25.8388 41.2839L26.0445 41.0925L26.3106 40.8785L26.6174 40.641L27.1463 40.312L27.6328 40.056L28.1979 39.8276L28.7009 39.6714L29.2825 39.5428L29.8424 39.463L30.4205 39.4336L31.0565 39.4558L31.6312 39.5255L32.2041 39.6447L32.7753 39.8135L33.2661 40.0044L33.7552 40.2448L34.2815 40.561L34.7472 40.8998L35.0756 41.1843L36.0882 12.73L36.1608 12.3603L36.3121 12.0182L36.4996 11.7765L36.6439 11.6327L37.0293 11.4228L38.4802 10.9026L39.6287 10.496L40.7573 10.0887L41.6033 9.79556L42.228 9.56919L42.8727 9.34351L43.4975 9.11714L44.1421 8.89147L44.7669 8.6651L46.2178 8.14494L48.8777 7.19544L49.7237 6.90233L50.3484 6.67597L51.4969 6.26933L52.1217 6.04296L52.7663 5.81729L53.3911 5.59092L54.842 5.07076L56.9376 4.32492L57.8441 4.00911L58.4688 3.78274L59.7988 3.30799L60.6249 3.0142ZM59.5714 6.40215L55.2999 7.91584L54.1714 8.32316L53.0229 8.72979L52.0559 9.06831L51.4311 9.29467L50.2827 9.70131L49.6579 9.92768L48.328 10.4024L47.1795 10.8091L46.051 11.2164L45.205 11.5095L44.5802 11.7359L43.1293 12.256L41.0942 12.9791L40.1272 13.3177L39.5024 13.544L38.4145 13.928L38.3739 13.9514L38.1395 20.6685L38.3201 20.6252L39.5092 20.1951L40.6576 19.7885L41.7862 19.3812L52.0627 15.7194L53.0297 15.3809L53.6544 15.1545L54.2991 14.9289L54.9239 14.7025L55.5685 14.4768L56.1933 14.2504L57.5232 13.7757L58.6717 13.3691L59.3163 13.1434L59.3777 13.0959L59.6112 6.40353L59.5714 6.40215ZM54.1949 33.8852L53.5572 33.9125L53.1769 33.9737L52.6152 34.103L52.2117 34.2627L51.7468 34.4698L51.2784 34.7761L51.0122 34.9901L50.7444 35.2538L50.4963 35.5181L50.2872 35.8086L50.161 36.0027L49.9908 36.3194L49.8594 36.6623L49.7661 37.0561L49.7117 37.4761L49.7186 37.8486L49.7825 38.2975L49.8706 38.6232L49.9985 38.9503L50.167 39.2539L50.3744 39.5838L50.5265 39.7876L50.7373 40.0183L50.9871 40.2752L51.375 40.5617L51.6861 40.7711L52.1355 41.0101L52.4889 41.1466L53.1984 41.345L53.9311 41.445L54.3096 41.4334L54.9085 41.3799L55.5704 41.2293L55.8928 41.1164L56.4182 40.8866L56.7638 40.6753L57.1103 40.4392L57.4396 40.1281L57.7075 39.8644L57.7092 39.8149L57.749 39.8163L57.9797 39.4769L58.1689 39.1857L58.3418 38.7946L58.455 38.4015L58.5043 38.1303L58.5259 37.5106L58.4628 37.0369L58.3202 36.5604L58.1535 36.2071L57.9089 35.8015L57.8338 35.6748L57.6229 35.4441L57.374 35.1625L56.948 34.825L56.5791 34.5639L55.9335 34.2436L55.225 34.0204L54.6114 33.9245L54.1949 33.8852ZM30.4783 42.3392L29.7602 42.3886L29.2392 42.4945L28.7967 42.6279L28.3724 42.8117L27.9464 43.045L27.5999 43.281L27.3743 43.4717L27.1064 43.7353L26.9414 43.9033L26.7115 44.2179L26.4592 44.6061L26.2639 45.0709L26.1723 45.4151L26.1213 45.7359L26.1048 46.2069L26.1498 46.6303L26.2543 47.0559L26.4003 47.4332L26.6449 47.8388L26.7952 48.0922L26.9862 48.3222L27.2549 48.6046L27.4675 48.7857L27.9134 49.1239L28.1865 49.2823L28.5382 49.4683L28.9115 49.6054L29.4827 49.7742L30.136 49.8715L30.613 49.8881L31.2913 49.8373L31.9731 49.6874L32.3966 49.5285L32.9427 49.2745L33.4724 48.9208L33.6574 48.7535L33.8838 48.5381L34.1318 48.2737L34.2986 48.0562L34.5509 47.6679L34.7237 47.2769L34.8361 46.9086L34.9104 46.4893L34.9243 46.0927L34.8957 45.7691L34.8292 45.3945L34.7039 44.9931L34.5743 44.7156L34.3678 44.3609L34.1595 44.0559L33.9107 43.7742L33.6221 43.4911L33.0984 43.1006L32.8253 42.9422L32.2775 42.6749L31.5291 42.4503L30.7964 42.3503L30.4783 42.3392Z" fill="#1D5AB6"/>
</svg>
