<svg width="60" height="60" viewBox="0 0 60 60" fill="none" xmlns="http://www.w3.org/2000/svg">
<path d="M59.112 10.3895L50.121 0.925266C49.8429 0.631448 49.5123 0.398434 49.1483 0.239638C48.7843 0.0808425 48.394 -0.00059826 48 3.30844e-06H12C11.606 -0.00059826 11.2157 0.0808425 10.8517 0.239638C10.4877 0.398434 10.1571 0.631448 9.879 0.925266L0.888003 10.3895C0.606261 10.682 0.382646 11.0306 0.230189 11.415C0.0777322 11.7994 -0.000516691 12.2119 2.56747e-06 12.6284V53.6842C2.56747e-06 55.3593 0.632143 56.9657 1.75736 58.1502C2.88258 59.3346 4.4087 60 6 60H54C55.5913 60 57.1174 59.3346 58.2426 58.1502C59.3679 56.9657 60 55.3593 60 53.6842V12.6284C60.0005 12.2119 59.9223 11.7994 59.7698 11.415C59.6174 11.0306 59.3937 10.682 59.112 10.3895ZM13.242 6.31579H46.758L49.758 9.47369H10.242L13.242 6.31579ZM45 34.7368V37.8947H15V25.2632H21V31.5789H39V25.2632H45V34.7368Z" fill="#1D5AB6"/>
</svg>
