<svg width="32" height="32" viewBox="0 0 32 32" fill="none" xmlns="http://www.w3.org/2000/svg">
<g clip-path="url(#clip0_1442_810)">
<path d="M0 15.36C0 8.1192 0 4.49884 2.24942 2.24942C4.49884 0 8.1192 0 15.36 0H16.64C23.8808 0 27.5011 0 29.7506 2.24942C32 4.49884 32 8.1192 32 15.36V16.64C32 23.8808 32 27.5011 29.7506 29.7506C27.5011 32 23.8808 32 16.64 32H15.36C8.1192 32 4.49884 32 2.24942 29.7506C0 27.5011 0 23.8808 0 16.64V15.36Z" fill="white"/>
<path d="M16.9709 23.0401C9.53631 23.0401 5.29583 17.9951 5.11914 9.6001H8.84321C8.96554 15.7618 11.711 18.3717 13.8856 18.9099V9.6001H17.3923V14.9142C19.5398 14.6855 21.7957 12.2639 22.5568 9.6001H26.0635C25.4791 12.8827 23.0326 15.3044 21.2929 16.2999C23.0326 17.1071 25.819 19.2193 26.8791 23.0401H23.019C22.1899 20.4839 20.1242 18.5063 17.3923 18.2372V23.0401H16.9709Z" fill="black"/>
</g>
<defs>
<clipPath id="clip0_1442_810">
<rect width="32" height="32" fill="white"/>
</clipPath>
</defs>
</svg>
