<svg width="32" height="32" viewBox="0 0 32 32" fill="none" xmlns="http://www.w3.org/2000/svg">
<path d="M12.8 20.6651V11.3351L21.12 16.0001L12.8 20.6651Z" fill="black"/>
<path d="M31.3249 8.51734C31.1428 7.86015 30.7862 7.26094 30.2908 6.77969C29.7955 6.29844 29.1787 5.95203 28.5022 5.77514C26.0109 5.12012 16 5.12012 16 5.12012C16 5.12012 5.98911 5.12012 3.49781 5.77514C2.82133 5.95203 2.20453 6.29844 1.70915 6.77969C1.21377 7.26094 0.857198 7.86015 0.675109 8.51734C0.209929 10.9856 -0.01581 13.4909 0.00085988 16.0001C-0.01581 18.5094 0.209929 21.0146 0.675109 23.4829C0.857198 24.1401 1.21377 24.7393 1.70915 25.2205C2.20453 25.7018 2.82133 26.0482 3.49781 26.2251C5.98911 26.8801 16 26.8801 16 26.8801C16 26.8801 26.0109 26.8801 28.5022 26.2251C29.1787 26.0482 29.7955 25.7018 30.2908 25.2205C30.7862 24.7393 31.1428 24.1401 31.3249 23.4829C31.7901 21.0146 32.0158 18.5094 31.9991 16.0001C32.0158 13.4909 31.7901 10.9856 31.3249 8.51734ZM12.8002 20.663V11.3373L21.1083 16.0001L12.8002 20.663Z" fill="white"/>
</svg>
